<svg width="22" height="19" viewBox="0 0 22 19" fill="none" xmlns="http://www.w3.org/2000/svg">
    <path d="M16.488 1.63898V5.17498H12.953" stroke="white" stroke-width="1.2" stroke-linecap="round"
        stroke-linejoin="round" />
    <path d="M16.027 5.175C14.67 2.688 12.032 1 9 1C4.582 1 1 4.582 1 9C1 13.418 4.582 17 9 17" stroke="white"
        stroke-width="1.2" stroke-linecap="round" stroke-linejoin="round" />
    <path
        d="M14.5684 9.72727V17H13.6878V10.6506H13.6452L11.8696 11.8295V10.9347L13.6878 9.72727H14.5684ZM18.6828 17.0994C18.2661 17.0994 17.8909 17.0166 17.5571 16.8509C17.2233 16.6851 16.9558 16.4579 16.7545 16.169C16.5533 15.8802 16.4432 15.5511 16.4243 15.1818H17.2765C17.3097 15.5109 17.4588 15.7831 17.724 15.9986C17.9915 16.2116 18.3111 16.3182 18.6828 16.3182C18.9811 16.3182 19.2462 16.2483 19.4782 16.1087C19.7126 15.969 19.8961 15.7772 20.0287 15.5334C20.1636 15.2872 20.2311 15.009 20.2311 14.6989C20.2311 14.3816 20.1613 14.0987 20.0216 13.8501C19.8843 13.5992 19.6949 13.4015 19.4534 13.2571C19.2119 13.1127 18.9361 13.0393 18.626 13.0369C18.4034 13.0346 18.175 13.0689 17.9406 13.1399C17.7062 13.2086 17.5133 13.2973 17.3618 13.4062L16.5379 13.3068L16.9782 9.72727H20.7567V10.5085H17.7169L17.4612 12.6534H17.5038C17.653 12.535 17.84 12.4368 18.0649 12.3587C18.2898 12.2805 18.5242 12.2415 18.768 12.2415C19.2131 12.2415 19.6096 12.348 19.9577 12.5611C20.308 12.7718 20.5827 13.0606 20.7815 13.4276C20.9827 13.7945 21.0834 14.2135 21.0834 14.6847C21.0834 15.1487 20.9792 15.563 20.7709 15.9276C20.5649 16.2898 20.2808 16.5762 19.9186 16.7869C19.5564 16.9953 19.1444 17.0994 18.6828 17.0994Z"
        fill="white" />
</svg>
