<svg width="23" height="19" viewBox="0 0 23 19" fill="none" xmlns="http://www.w3.org/2000/svg">
    <path d="M6.51187 1.63892V5.17492H10.0469" stroke="white" stroke-width="1.2" stroke-linecap="round"
        stroke-linejoin="round" />
    <path d="M6.973 5.175C8.33 2.688 10.968 1 14 1C18.418 1 22 4.582 22 9C22 13.418 18.418 17 14 17" stroke="white"
        stroke-width="1.2" stroke-linecap="round" stroke-linejoin="round" />
    <path
        d="M3.56845 9.72727V17H2.68777V10.6506H2.64515L0.869585 11.8295V10.9347L2.68777 9.72727H3.56845ZM7.68279 17.0994C7.26613 17.0994 6.89089 17.0166 6.55708 16.8509C6.22328 16.6851 5.95576 16.4579 5.75453 16.169C5.5533 15.8802 5.44321 15.5511 5.42427 15.1818H6.27654C6.30969 15.5109 6.45884 15.7831 6.72399 15.9986C6.99151 16.2116 7.31111 16.3182 7.68279 16.3182C7.98109 16.3182 8.24624 16.2483 8.47825 16.1087C8.71262 15.969 8.8961 15.7772 9.02868 15.5334C9.16362 15.2872 9.23109 15.009 9.23109 14.6989C9.23109 14.3816 9.16125 14.0987 9.02157 13.8501C8.88426 13.5992 8.69487 13.4015 8.45339 13.2571C8.21191 13.1127 7.93611 13.0393 7.62598 13.0369C7.40344 13.0346 7.17498 13.0689 6.94061 13.1399C6.70623 13.2086 6.51329 13.2973 6.36177 13.4062L5.53791 13.3068L5.97825 9.72727H9.75666V10.5085H6.71689L6.4612 12.6534H6.50382C6.65297 12.535 6.83999 12.4368 7.0649 12.3587C7.2898 12.2805 7.52418 12.2415 7.76802 12.2415C8.2131 12.2415 8.60964 12.348 8.95765 12.5611C9.30803 12.7718 9.58265 13.0606 9.78152 13.4276C9.98275 13.7945 10.0834 14.2135 10.0834 14.6847C10.0834 15.1487 9.9792 15.563 9.77086 15.9276C9.5649 16.2898 9.28081 16.5762 8.91859 16.7869C8.55637 16.9953 8.14444 17.0994 7.68279 17.0994Z"
        fill="white" />
</svg>
