<svg width="24" height="24" viewBox="0 0 24 24" fill="none" xmlns="http://www.w3.org/2000/svg">
<path d="M9 5.5H15" stroke="#A3A3A3" stroke-width="1.5" stroke-linecap="round" stroke-linejoin="round"/>
<path d="M18 9H6" stroke="#A3A3A3" stroke-width="1.5" stroke-linecap="round" stroke-linejoin="round"/>
<path d="M6 14.5H9" stroke="#A3A3A3" stroke-width="1.5" stroke-linecap="round" stroke-linejoin="round"/>
<path d="M17.1213 12.8787C18.2929 14.0503 18.2929 15.9498 17.1213 17.1213C15.9497 18.2929 14.0502 18.2929 12.8787 17.1213C11.7071 15.9498 11.7071 14.0503 12.8787 12.8787C14.0502 11.7071 15.9497 11.7071 17.1213 12.8787" stroke="#A3A3A3" stroke-width="1.5" stroke-linecap="round" stroke-linejoin="round"/>
<path d="M17 17.221V22L15 21L13 22V17.221" stroke="#A3A3A3" stroke-width="1.5" stroke-linecap="round" stroke-linejoin="round"/>
<path d="M17 19H20C21.105 19 22 18.105 22 17V4C22 2.895 21.105 2 20 2H4C2.895 2 2 2.895 2 4V17C2 18.105 2.895 19 4 19H13" stroke="#A3A3A3" stroke-width="1.5" stroke-linecap="round" stroke-linejoin="round"/>
</svg>
