<svg width="18" height="19" viewBox="0 0 18 19" fill="none" xmlns="http://www.w3.org/2000/svg">
<path d="M3 7.45424V6.5C2.99989 6.10228 3.15777 5.72081 3.43893 5.43951C3.72008 5.1582 4.10146 5.00011 4.49918 5H13.5C13.8977 4.99989 14.2792 5.15777 14.5605 5.43893C14.8418 5.72008 14.9999 6.10146 15 6.49918V9.70306" stroke="#A3A3A3" stroke-width="1.3" stroke-linecap="round" stroke-linejoin="round"/>
<path d="M3.75 5.20325V4.25C3.74989 3.85228 3.90777 3.47081 4.18893 3.18951C4.47008 2.9082 4.85146 2.75011 5.24918 2.75H12.75C13.1477 2.74989 13.5292 2.90777 13.8105 3.18893C14.0918 3.47008 14.2499 3.85146 14.25 4.24917V5.20325" stroke="#A3A3A3" stroke-width="1.3" stroke-linecap="round" stroke-linejoin="round"/>
<path fill-rule="evenodd" clip-rule="evenodd" d="M15.75 14.75V11C15.75 10.1716 15.0784 9.5 14.25 9.5H9.40139C9.15063 9.5 8.91645 9.37467 8.77736 9.16602L7.72266 7.58398C7.58356 7.37533 7.34939 7.25 7.09862 7.25H3.75C2.92157 7.25 2.25 7.92157 2.25 8.75V14.75C2.24989 15.1479 2.40789 15.5295 2.68922 15.8108C2.97055 16.0921 3.35214 16.2501 3.75 16.25H14.25C14.6479 16.2501 15.0295 16.0921 15.3108 15.8108C15.5921 15.5295 15.7501 15.1479 15.75 14.75Z" stroke="#A3A3A3" stroke-width="1.3" stroke-linecap="round" stroke-linejoin="round"/>
</svg>
