<svg width="22" height="15" viewBox="0 0 22 15" fill="none" xmlns="http://www.w3.org/2000/svg">
<path d="M21.5322 3.76081L11.5779 0.177491C10.9569 -0.0575586 11.0875 -0.0599568 10.4711 0.175092L0.459463 3.72723C-0.156955 3.95988 -0.152372 4.33884 0.468629 4.57389L2.53616 5.33871C1.48206 6.40842 1.72438 7.59835 1.71063 8.88632C1.30274 9.04942 1.01401 9.46435 1.01401 9.94884C1.01401 10.3926 1.25691 10.7787 1.6121 10.9658C1.44482 12.2753 1.87788 12.6513 0.459428 14.4238C1.10396 14.7872 1.06672 14.8105 1.6121 15C3.59655 14.1078 2.89305 13.2299 2.73952 10.8722C3.01221 10.666 3.18866 10.3302 3.18866 9.95124C3.18866 9.5459 2.98471 9.18853 2.67765 8.98706C2.53616 6.79232 3.25226 5.70211 3.94486 5.8115C3.9059 5.82829 3.95173 5.79231 3.94486 5.8115L5.38164 6.31997L10.5559 8.15719C11.1769 8.39224 11.0463 8.39464 11.6627 8.15959L21.5414 4.60747C22.1555 4.37482 22.1532 3.99586 21.5322 3.76081ZM10.5421 9.53151L4.27713 7.31053C4.27713 7.31053 4.32126 11.3305 4.38254 11.4119C4.46503 11.6733 4.6094 11.93 4.81564 12.0115C8.46142 14.1198 13.5005 14.0982 17.5519 11.7981C17.8521 11.5366 18.0858 11.2128 18.0858 10.8986V7.21699L11.6512 9.53631C11.0371 9.76896 11.1608 9.76656 10.5421 9.53151Z" fill="#D0D5DD"/>
</svg>
