<svg width="76" height="53" viewBox="0 0 76 53" fill="none" xmlns="http://www.w3.org/2000/svg">
<mask id="mask0_2720_71429" style="mask-type:luminance" maskUnits="userSpaceOnUse" x="0" y="11" width="76" height="34">
<path d="M76 11.9677H0V44.4232H76V11.9677Z" fill="white"/>
</mask>
<g mask="url(#mask0_2720_71429)">
<path d="M0.135231 19.3243C0.0540925 19.0538 0 18.8374 0 18.6481C0 18.1884 0.270463 17.972 0.784345 17.9449H3.65125C4.13808 17.9449 4.57082 18.0531 4.94946 18.2965C5.32811 18.5399 5.59858 18.8645 5.73381 19.2972L8.27615 27.6005L10.7644 19.2972C11.0349 18.4048 11.6299 17.9449 12.5224 17.9449H15.2541C16.1467 17.9449 16.7416 18.4048 17.0121 19.2972L19.5004 27.6005L22.0427 19.2972C22.178 18.8645 22.4484 18.5399 22.8271 18.2965C23.2057 18.0531 23.6385 17.9449 24.1253 17.9449H26.9922C27.506 17.9449 27.7495 18.1884 27.7766 18.6481C27.7766 18.8374 27.7224 19.0538 27.6413 19.3243L22.9352 33.5236C22.8 33.9563 22.5296 34.2809 22.1508 34.5243C21.7722 34.7677 21.3936 34.8759 20.9609 34.8759H18.7971C18.3644 34.8759 17.9858 34.7406 17.6072 34.4973C17.2284 34.2538 16.9851 33.9292 16.8498 33.5236L13.8747 24.3279L10.8996 33.5236C10.7644 33.9292 10.521 34.2538 10.1423 34.4973C9.7637 34.7406 9.35799 34.8759 8.95229 34.8759H6.78864C6.35587 34.8759 5.97722 34.7677 5.59858 34.5243C5.21993 34.2809 4.97651 33.9563 4.81423 33.5236L0.135231 19.3243Z" fill="white"/>
<path d="M30.0215 33.9292V18.8916C30.0215 18.621 30.1027 18.3777 30.292 18.2154C30.4813 18.0531 30.6977 17.9449 30.9682 17.9449H34.4301C34.7005 17.9449 34.9439 18.0261 35.1062 18.2154C35.2686 18.4048 35.3767 18.621 35.3767 18.8916V33.9292C35.3767 34.1997 35.2955 34.4432 35.1062 34.6054C34.9169 34.7677 34.7005 34.8759 34.4301 34.8759H30.9682C30.6977 34.8759 30.4543 34.7948 30.292 34.6054C30.1027 34.4432 30.0215 34.1997 30.0215 33.9292Z" fill="white"/>
<path d="M45.1945 34.8759C43.0579 34.8759 41.2457 34.1186 39.8123 32.6041C38.3788 31.0895 37.6486 29.2232 37.6486 26.4104C37.6486 23.5976 38.4058 21.7044 39.8934 20.2169C41.3809 18.7022 43.4094 17.9449 45.9247 17.9449C47.2229 17.9449 48.7105 18.2154 50.3874 18.7293V13.4011C50.3874 13.1307 50.4685 12.8873 50.6579 12.725C50.8471 12.5357 51.0635 12.4546 51.334 12.4546H54.7688C55.0393 12.4546 55.2828 12.5357 55.4449 12.725C55.6343 12.9143 55.7155 13.1307 55.7155 14.0232V33.9563C55.7155 34.2538 55.6343 34.4432 55.4449 34.6325C55.2556 34.8219 55.0393 34.9029 54.7688 34.9029H51.7937C51.5233 34.9029 51.2799 34.8219 51.1176 34.6325C50.9553 34.4432 50.8471 34.2267 50.8471 33.9563V33.1719C49.2244 34.2809 47.3311 34.8759 45.1945 34.8759ZM44.0044 22.8674C43.4094 23.6518 43.1119 24.6524 43.1119 26.4104C43.1119 28.1684 43.3824 29.1421 43.9503 29.9535C44.5184 30.7648 45.3297 31.1435 46.4657 31.1435C47.5745 31.1435 48.8727 30.6838 50.3603 29.7641V22.2993C49.0351 21.8937 47.9261 21.6773 47.0066 21.6773C45.6001 21.6773 44.5995 22.083 44.0044 22.8674Z" fill="white"/>
<path d="M60.3674 32.6041C58.7716 31.0895 57.9873 29.3314 57.9873 26.4915C57.9873 23.6788 58.7716 21.7315 60.3674 20.2169C61.9628 18.7022 64.1809 17.9449 66.9936 17.9449C69.8337 17.9449 72.0243 18.6752 73.6203 20.1627C75.2157 21.6503 76.0002 23.7599 76.0002 26.5185V27.4112C76.0002 27.6816 75.9192 27.925 75.7299 28.0873C75.5405 28.2766 75.3241 28.3577 75.0538 28.3577H63.4234C63.5319 29.629 64.3164 31.3599 67.5077 31.3599C68.8868 31.3599 69.8068 31.0624 70.3204 30.4403C70.8346 29.8182 71.456 29.5207 72.1867 29.4936H74.4856C74.756 29.4936 74.9993 29.5749 75.1617 29.7641C75.3511 29.9535 75.432 30.1698 75.432 30.4403C75.432 33.3884 72.6194 34.8759 66.9936 34.8489C64.154 34.8759 61.9359 34.1186 60.3674 32.6041ZM63.3964 25.1123H70.5637C70.4558 22.678 69.2655 21.461 66.9936 21.461C64.7221 21.461 63.5319 22.678 63.3964 25.1123Z" fill="white"/>
<path d="M8.35719 42.7193V43.2061H5.57141V39.3656H8.27604V39.8524H6.11234V41.0424H8.03266V41.5023H6.11234V42.7464H8.35719V42.7193Z" fill="#979797"/>
<path d="M14.632 39.3656H16.2547C16.6604 39.3656 17.012 39.4467 17.3365 39.609C17.6611 39.7713 17.9045 39.9877 18.0668 40.2851C18.2291 40.5826 18.3373 40.9072 18.3373 41.2859C18.3373 41.6645 18.2561 41.9891 18.0668 42.2866C17.9045 42.5841 17.6611 42.8004 17.3365 42.9627C17.012 43.125 16.6604 43.2061 16.2547 43.2061H14.632V39.3656ZM16.2006 42.7193C16.4981 42.7193 16.7957 42.6652 17.012 42.53C17.2555 42.4218 17.4177 42.2325 17.553 42.0161C17.6882 41.7997 17.7423 41.5564 17.7423 41.2588C17.7423 40.9613 17.6882 40.7179 17.553 40.5015C17.4177 40.2851 17.2555 40.1229 17.012 39.9877C16.7686 39.8794 16.4981 39.7983 16.2006 39.7983H15.1728V42.6923H16.2006V42.7193Z" fill="#979797"/>
<path d="M24.9096 42.8005C24.6121 42.5029 24.4768 42.0972 24.4768 41.5293V39.3386H25.0178V41.5022C25.0178 42.3136 25.3693 42.7464 26.0995 42.7464C26.4512 42.7464 26.7216 42.6382 26.911 42.4488C27.1003 42.2595 27.1814 41.935 27.1814 41.5293V39.3656H27.7223V41.5564C27.7223 42.0972 27.5872 42.53 27.2897 42.8275C26.9921 43.125 26.6135 43.2602 26.0995 43.2602C25.5857 43.2332 25.18 43.098 24.9096 42.8005Z" fill="#979797"/>
<path d="M34.8896 42.9627C34.592 42.8005 34.3486 42.5571 34.1593 42.2596C33.997 41.9621 33.8888 41.6375 33.8888 41.2589C33.8888 40.8803 33.97 40.5557 34.1593 40.2581C34.3216 39.9606 34.565 39.7172 34.8896 39.5549C35.1871 39.3927 35.5387 39.3116 35.9173 39.3116C36.2148 39.3116 36.4853 39.3657 36.7287 39.4738C36.9721 39.582 37.1885 39.7172 37.3507 39.9336L36.9992 40.2852C36.7016 39.9876 36.3501 39.8254 35.9173 39.8254C35.6198 39.8254 35.3764 39.8795 35.133 40.0147C34.8895 40.15 34.7273 40.3122 34.592 40.5557C34.4568 40.772 34.4027 41.0425 34.4027 41.313C34.4027 41.5835 34.4568 41.8539 34.592 42.0703C34.7273 42.2866 34.8895 42.4759 35.133 42.6112C35.3764 42.7464 35.6198 42.8005 35.9173 42.8005C36.3501 42.8005 36.7016 42.6382 36.9992 42.3408L37.3507 42.6923C37.1885 42.8816 36.9721 43.044 36.7016 43.1521C36.4583 43.2603 36.1878 43.3144 35.8902 43.3144C35.5387 43.2332 35.1871 43.1521 34.8896 42.9627Z" fill="#979797"/>
<path d="M45.8706 42.2324H43.8421L43.4093 43.1791H42.8413L44.5723 39.3386H45.1133L46.8442 43.1791H46.2763L45.8706 42.2324ZM45.6812 41.7997L44.8428 39.9335L44.0043 41.7997H45.6812Z" fill="#979797"/>
<path d="M53.4433 42.9627C53.1458 42.8005 52.9024 42.5571 52.7131 42.2596C52.5508 41.9621 52.4426 41.6375 52.4426 41.2589C52.4426 40.8803 52.5238 40.5557 52.7131 40.2581C52.8754 39.9606 53.1188 39.7172 53.4433 39.5549C53.7409 39.3927 54.0924 39.3116 54.4711 39.3116C54.7686 39.3116 55.0391 39.3657 55.2825 39.4738C55.5259 39.582 55.7422 39.7172 55.9046 39.9336L55.5529 40.2852C55.2554 39.9876 54.9038 39.8254 54.4711 39.8254C54.1735 39.8254 53.9302 39.8795 53.6867 40.0147C53.4433 40.15 53.2811 40.3122 53.1458 40.5557C53.0106 40.772 52.9565 41.0425 52.9565 41.313C52.9565 41.5835 53.0106 41.8539 53.1458 42.0703C53.2811 42.2866 53.4433 42.4759 53.6867 42.6112C53.9031 42.7464 54.1735 42.8005 54.4711 42.8005C54.9038 42.8005 55.2554 42.6382 55.5529 42.3408L55.9046 42.6923C55.7422 42.8816 55.5259 43.044 55.2554 43.1521C55.012 43.2603 54.7416 43.3144 54.4441 43.3144C54.0924 43.2332 53.7409 43.1521 53.4433 42.9627ZM53.7679 44.2881L53.876 44.0176C53.9842 44.0717 54.1195 44.0987 54.2548 44.0987C54.4711 44.0987 54.5523 44.0176 54.5523 43.8824C54.5523 43.8283 54.5252 43.7742 54.4711 43.72C54.417 43.693 54.3359 43.666 54.2277 43.666H54.0924L54.2277 43.1251H54.5252L54.4441 43.4496C54.6063 43.4767 54.7145 43.5037 54.7956 43.5849C54.8768 43.666 54.9309 43.7742 54.9309 43.8824C54.9309 44.0446 54.8768 44.1528 54.7416 44.234C54.6063 44.3151 54.4441 44.3692 54.2548 44.3692C54.0654 44.4232 53.9031 44.3692 53.7679 44.2881Z" fill="#979797"/>
<path d="M64.4241 42.2325H62.3959L61.9633 43.1791H61.3951L63.126 39.3385H63.6671L65.398 43.1791H64.8298L64.4241 42.2325ZM63.5856 38.9599C63.5317 38.9329 63.4508 38.8787 63.3423 38.7976C63.2884 38.7435 63.2344 38.7165 63.2068 38.6895C63.1799 38.6624 63.126 38.6624 63.099 38.6624C63.0181 38.6624 62.9636 38.6895 62.9096 38.7435C62.8557 38.7976 62.8287 38.8787 62.8287 38.987H62.5309C62.5309 38.7706 62.5848 38.6083 62.6933 38.5001C62.8011 38.3919 62.9096 38.3108 63.072 38.3108C63.153 38.3108 63.2344 38.3378 63.3154 38.3648C63.3693 38.3919 63.4508 38.446 63.5587 38.5272C63.6126 38.5813 63.6671 38.6083 63.6941 38.6353C63.7211 38.6624 63.775 38.6624 63.8019 38.6624C63.8835 38.6624 63.9375 38.6353 63.9914 38.5813C64.0453 38.5272 64.0729 38.446 64.0729 38.3378H64.3702C64.3702 38.5272 64.3162 38.6895 64.2077 38.8246C64.0999 38.9329 63.9914 39.014 63.8289 39.014C63.7211 39.014 63.6395 39.014 63.5856 38.9599ZM64.2347 41.7997L63.3962 39.9336L62.5578 41.7997H64.2347Z" fill="#979797"/>
<path d="M71.997 42.9627C71.6997 42.8005 71.4558 42.5571 71.267 42.2596C71.0776 41.9621 70.9961 41.6375 70.9961 41.2589C70.9961 40.8803 71.0776 40.5557 71.267 40.2581C71.4558 39.9606 71.6997 39.7172 71.997 39.5549C72.2942 39.3927 72.6461 39.3116 73.0518 39.3116C73.4306 39.3116 73.7824 39.3927 74.0796 39.5549C74.3769 39.7172 74.6202 39.9606 74.8096 40.2581C74.972 40.5557 75.0805 40.8803 75.0805 41.2589C75.0805 41.6375 74.999 41.9621 74.8096 42.2596C74.6478 42.5571 74.4039 42.8005 74.0796 42.9627C73.7824 43.1251 73.4306 43.2062 73.0518 43.2062C72.6461 43.2332 72.3218 43.1521 71.997 42.9627ZM73.8094 42.5571C74.0257 42.4219 74.2151 42.2596 74.3499 42.0162C74.4853 41.7998 74.5393 41.5293 74.5393 41.2589C74.5393 40.9884 74.4853 40.7179 74.3499 40.5016C74.2151 40.2852 74.0527 40.0959 73.8094 39.9606C73.593 39.8254 73.3221 39.7713 73.0518 39.7713C72.7815 39.7713 72.5106 39.8254 72.2942 39.9606C72.0779 40.0959 71.8891 40.2581 71.7537 40.5016C71.6182 40.7179 71.5643 40.9884 71.5643 41.2589C71.5643 41.5293 71.6182 41.7998 71.7537 42.0162C71.8891 42.2325 72.051 42.4219 72.2942 42.5571C72.5106 42.6923 72.7815 42.7464 73.0518 42.7464C73.3221 42.7464 73.5654 42.6923 73.8094 42.5571Z" fill="#979797"/>
<path d="M27.7224 12.2382C27.6954 12.2652 27.6683 12.2922 27.6413 12.3193C27.6683 12.3193 27.6954 12.3193 27.7224 12.4005C27.6954 12.4005 27.6954 12.4005 27.6683 12.4005C27.6142 12.4005 27.6142 12.4005 27.5872 12.4546C27.5872 12.4546 27.5872 12.4816 27.5601 12.4816C27.506 12.4546 27.479 12.4275 27.4249 12.4546C27.3978 12.4816 27.3978 12.4546 27.3167 12.4005C27.3438 12.3734 27.3438 12.3734 27.3708 12.3193C27.3167 12.3193 27.2897 12.3193 27.2626 12.3463C27.2626 12.3734 27.2897 12.3734 27.2897 12.4005V12.4275H27.2626C27.2356 12.4005 27.1815 12.3463 27.1544 12.3193C27.1544 12.3193 27.1274 12.3463 27.1274 12.3734C27.1003 12.4005 27.1003 12.4005 27.0733 12.3463C27.0463 12.2922 27.0192 12.3463 27.0192 12.3463C26.9921 12.4275 26.9921 12.5357 27.0733 12.5627C27.0733 12.6979 27.0463 12.725 26.9651 12.6979C26.9651 12.6709 26.9921 12.6439 26.9921 12.6439C26.9921 12.6439 26.9921 12.6439 26.9921 12.6168C26.9381 12.6439 26.911 12.6168 26.857 12.6439C26.857 12.6709 26.8299 12.6709 26.8299 12.6979C26.857 12.725 26.857 12.725 26.8839 12.7521C26.8839 12.7792 26.857 12.7792 26.857 12.8062C26.8299 12.8062 26.8299 12.8062 26.8028 12.8332C26.7757 12.8332 26.7488 12.8332 26.7488 12.8603C26.6946 12.8062 26.7488 12.7792 26.7488 12.725C26.7217 12.6709 26.6946 12.725 26.6406 12.725C26.6135 12.6709 26.6135 12.6168 26.5864 12.5357C26.6135 12.5087 26.6676 12.4816 26.6946 12.5087C26.7757 12.5627 26.8299 12.5357 26.911 12.5087C26.911 12.4816 26.911 12.4546 26.911 12.4275C26.8839 12.4275 26.857 12.4275 26.8299 12.4275C26.8028 12.4275 26.7757 12.4005 26.7488 12.4005H26.7217C26.6135 12.4005 26.5324 12.4275 26.4242 12.4275C26.4242 12.4546 26.4242 12.4816 26.4513 12.4816C26.4513 12.5087 26.4782 12.5087 26.5053 12.5087C26.5053 12.5087 26.5324 12.5357 26.5324 12.5627C26.5324 12.6168 26.5053 12.5898 26.4782 12.5898C26.4513 12.5898 26.4242 12.5627 26.4242 12.6168C26.4513 12.6439 26.4513 12.6439 26.4782 12.6709C26.4513 12.725 26.3971 12.725 26.3701 12.7792C26.2889 12.7521 26.1807 12.6979 26.0996 12.7521C26.0726 12.7521 26.0456 12.7521 26.0456 12.7521C26.0185 12.7521 25.9914 12.7792 25.9914 12.7792C25.9644 12.7521 25.9644 12.6979 25.9374 12.6709C25.9374 12.6979 25.9374 12.725 25.9374 12.7792C25.8833 12.8332 25.8562 12.7792 25.8021 12.7792C25.748 12.7792 25.721 12.7792 25.6398 12.7521C25.721 12.8062 25.8292 12.8062 25.9103 12.8062C25.9374 12.8062 25.9644 12.8062 25.9644 12.8062C25.9644 12.8062 25.9914 12.8062 25.9914 12.8332C25.9914 12.8332 25.9914 12.8603 25.9914 12.8873C25.9644 12.9143 25.9644 12.9414 25.9644 12.9955C25.9644 13.0495 25.9644 13.0495 26.0456 13.0766C26.0456 13.1037 26.0726 13.1307 26.0726 13.1848C26.0456 13.2119 26.0185 13.2389 25.9914 13.2389C25.9914 13.2389 26.0185 13.2389 26.0456 13.266C26.0726 13.293 26.0456 13.32 26.0185 13.32C25.9914 13.32 25.9644 13.32 25.9103 13.32C25.9103 13.293 25.8833 13.293 25.8833 13.266C25.8292 13.2119 25.8021 13.1848 25.721 13.2119C25.6939 13.2119 25.6398 13.2389 25.6128 13.2389C25.6669 13.293 25.721 13.2389 25.7751 13.293C25.748 13.32 25.748 13.32 25.721 13.3471C25.721 13.3741 25.721 13.4011 25.6939 13.4282H25.6669C25.6669 13.4011 25.6669 13.3741 25.6398 13.3471C25.6128 13.32 25.5317 13.3741 25.4776 13.32C25.4776 13.293 25.4235 13.32 25.4235 13.32C25.3964 13.32 25.3964 13.293 25.3694 13.293C25.3694 13.32 25.3694 13.3471 25.3964 13.3741C25.4235 13.4011 25.4505 13.4011 25.4776 13.4282C25.4505 13.4282 25.4235 13.4282 25.3964 13.4282C25.3694 13.4282 25.3423 13.4552 25.3153 13.4552C25.3153 13.4823 25.3423 13.5094 25.3423 13.5635C25.2883 13.5905 25.2341 13.5905 25.1801 13.5635C25.1801 13.5364 25.1801 13.5094 25.153 13.4823C25.126 13.4823 25.099 13.5094 25.0718 13.5094C25.0448 13.5094 24.9908 13.5094 24.9637 13.5094C24.8826 13.5094 24.8826 13.5094 24.8284 13.4282C24.8284 13.4552 24.8015 13.5094 24.8015 13.5364C24.8284 13.5635 24.8555 13.5905 24.8825 13.5635C24.9096 13.5364 24.9366 13.5364 24.9637 13.5364L24.9908 13.5635C24.9908 13.5635 24.9908 13.5905 24.9637 13.5905C24.8826 13.5635 24.8015 13.6176 24.7202 13.6176C24.6933 13.6176 24.6391 13.6176 24.6121 13.6176C24.6121 13.5635 24.6121 13.5094 24.585 13.4552C24.558 13.4552 24.5309 13.5364 24.5309 13.4552C24.5309 13.4011 24.5039 13.4011 24.4769 13.4282C24.4769 13.5094 24.5039 13.5635 24.5309 13.5905C24.5309 13.5905 24.5309 13.6176 24.5309 13.6446L24.5039 13.6716C24.4768 13.6446 24.4227 13.6716 24.3957 13.6716C24.3146 13.6987 24.2064 13.6987 24.1253 13.6987C24.0982 13.6987 24.0982 13.6987 24.0712 13.6987C24.0712 13.7257 24.0712 13.7257 24.0712 13.7257C24.0982 13.7798 24.1523 13.7257 24.1794 13.7528C24.2064 13.7798 24.2334 13.8068 24.2875 13.7798C24.2875 13.7528 24.2605 13.7257 24.2605 13.6987C24.2605 13.6446 24.3146 13.6446 24.3416 13.6716C24.3687 13.6716 24.3687 13.6987 24.3957 13.7257C24.4227 13.7257 24.4498 13.6987 24.4769 13.6987C24.5309 13.7257 24.585 13.7257 24.6391 13.6716H24.6662C24.7202 13.7257 24.7473 13.6987 24.8015 13.6987C24.8015 13.6446 24.8284 13.6446 24.8555 13.6446C24.9096 13.6446 24.9637 13.6446 25.0178 13.6446H25.0448C25.0718 13.6446 25.099 13.5635 25.153 13.5905C25.1801 13.6176 25.2071 13.6176 25.2341 13.6446C25.2611 13.6176 25.2883 13.5635 25.3423 13.6176C25.3423 13.6446 25.3694 13.6716 25.3423 13.6987C25.3153 13.7528 25.3423 13.7798 25.3694 13.8068C25.2611 13.861 25.126 13.861 25.0178 13.8881C25.0178 13.9151 25.0178 13.9151 25.0448 13.9151C25.0718 13.9151 25.099 13.9421 25.126 13.9151C25.153 13.9151 25.153 13.9692 25.153 13.9962C25.1801 13.9692 25.1801 13.9692 25.2071 13.9692C25.2341 13.9151 25.2883 13.9151 25.3423 13.9421C25.3964 13.9962 25.4505 13.9692 25.4776 13.9421C25.5317 13.9421 25.5587 13.9962 25.5858 14.0503C25.5046 14.0773 25.5046 14.0773 25.4505 14.1584C25.4235 14.1584 25.4505 14.1044 25.4235 14.0773H25.3964C25.3694 14.1584 25.2883 14.1314 25.2611 14.1855C25.2611 14.1855 25.2341 14.1855 25.2071 14.1584C25.1801 14.1314 25.2071 14.1314 25.2071 14.1044V14.0773C25.1801 14.0773 25.153 14.0773 25.099 14.0773C25.153 14.0773 25.153 14.1044 25.1801 14.1314C25.153 14.1314 25.126 14.1314 25.0718 14.1584C25.0448 14.1584 25.0178 14.2125 24.9637 14.1855C24.9366 14.1855 24.9096 14.1855 24.8555 14.1855C24.8555 14.1314 24.8555 14.1044 24.8555 14.0773H24.8284C24.7743 14.0232 24.8015 13.9692 24.8015 13.8881C24.7743 13.861 24.7473 13.861 24.7202 13.9151C24.6933 13.9421 24.7202 13.9962 24.7473 14.0232C24.7473 14.0232 24.7473 14.0503 24.7743 14.0773C24.6933 14.1044 24.6121 14.1044 24.558 14.1314C24.5309 14.1314 24.4768 14.1314 24.5039 14.1855L24.4769 14.2125C24.4227 14.2396 24.3957 14.2396 24.3416 14.2667C24.3416 14.2937 24.3687 14.3208 24.3687 14.2937C24.3957 14.2667 24.4498 14.2667 24.4769 14.2937C24.5309 14.2937 24.6121 14.3208 24.6662 14.2937C24.6933 14.2667 24.7202 14.2937 24.7743 14.2937C24.7743 14.3208 24.7743 14.3478 24.7473 14.3749C24.7202 14.3749 24.7202 14.3749 24.6933 14.3749C24.558 14.3749 24.4498 14.3749 24.3146 14.4289C24.2605 14.456 24.1794 14.483 24.1253 14.4289C24.0712 14.4019 24.0712 14.4289 24.0712 14.483C24.0982 14.483 24.1253 14.5101 24.1523 14.483C24.1794 14.483 24.1794 14.483 24.2064 14.5371C24.1794 14.5371 24.1794 14.5371 24.1523 14.5641C24.1253 14.5641 24.0982 14.5912 24.0982 14.6183C24.0982 14.6724 24.0441 14.6994 24.0171 14.6994C23.9359 14.6994 23.8548 14.7535 23.7737 14.6994C23.7466 14.6994 23.7195 14.6994 23.6925 14.7265C23.6655 14.7265 23.6385 14.7535 23.6113 14.7535C23.6925 14.8346 23.7466 14.8346 23.8278 14.8076C23.8548 14.7805 23.8819 14.7805 23.9088 14.7535C23.963 14.7265 24.0441 14.7535 24.0712 14.8346C24.1253 14.8076 24.1523 14.7805 24.1253 14.6994C24.1253 14.6724 24.1253 14.6453 24.1523 14.6183C24.1794 14.5912 24.1794 14.6183 24.2064 14.6453C24.2334 14.6724 24.2605 14.6724 24.2605 14.6453C24.2875 14.6183 24.3146 14.6183 24.3146 14.6724C24.2875 14.7265 24.2334 14.6724 24.1794 14.6994C24.1794 14.7265 24.2064 14.7535 24.2064 14.7805C24.1794 14.7805 24.1794 14.7805 24.1794 14.8076C24.1523 14.8346 24.1523 14.8617 24.1253 14.8617C24.0982 14.8617 24.0982 14.8887 24.0712 14.8887C24.0712 14.9157 24.0712 14.9428 24.0712 14.9698C24.017 14.9969 23.963 15.024 23.9088 15.051C23.9359 15.0781 24.017 15.0781 24.0712 15.0781C24.1253 15.0781 24.1794 15.051 24.2334 15.1051C24.2334 15.1592 24.2064 15.1321 24.2064 15.1321C24.1794 15.1321 24.1253 15.1321 24.0982 15.1321C24.0712 15.1321 24.0441 15.1321 23.99 15.1592C23.9359 15.2133 23.8548 15.1862 23.8006 15.1862C23.7737 15.1862 23.7737 15.1862 23.7466 15.1862C23.7195 15.2403 23.6655 15.2133 23.6113 15.2133C23.395 15.2403 23.1786 15.2673 22.9893 15.3214C22.9623 15.3214 22.9352 15.3214 22.9082 15.3214C22.9082 15.3756 22.9352 15.3485 22.9352 15.3485C22.9893 15.3485 23.0705 15.3214 23.1245 15.3485H23.1516C23.2598 15.2944 23.368 15.2673 23.4762 15.2944C23.5031 15.2944 23.5302 15.2944 23.5573 15.3214C23.5302 15.3214 23.4762 15.3485 23.4491 15.3485C23.5302 15.3485 23.6384 15.3214 23.7195 15.3214C23.7466 15.3214 23.7737 15.3485 23.8278 15.3756C23.8548 15.3756 23.8548 15.3485 23.8819 15.3214C23.9088 15.3214 23.9359 15.2944 23.963 15.3485C23.99 15.3756 24.017 15.3756 24.0441 15.3756C24.0982 15.3756 24.1253 15.4026 24.1794 15.3485C24.2064 15.3214 24.2334 15.3485 24.2334 15.3756C24.2334 15.4026 24.2334 15.4297 24.2064 15.4567H24.1794C24.017 15.4026 23.8548 15.5378 23.6925 15.5378C23.7737 15.5378 23.8548 15.5378 23.9359 15.5378C23.9359 15.5649 23.963 15.5919 23.963 15.6189C23.963 15.646 23.9359 15.673 23.9088 15.673C23.8819 15.673 23.8278 15.673 23.7737 15.7272C23.8548 15.7272 23.9359 15.7001 24.0171 15.7001C24.0982 15.7001 24.1794 15.673 24.2875 15.673C24.3687 15.673 24.4498 15.646 24.5309 15.646C24.5309 15.673 24.5309 15.7001 24.5309 15.7272C24.558 15.7542 24.558 15.7272 24.585 15.7001C24.6121 15.6189 24.6933 15.5919 24.7473 15.6189C24.7473 15.6189 24.7473 15.646 24.7743 15.673C24.9096 15.5919 25.0178 15.7001 25.153 15.7001C25.1801 15.7001 25.1801 15.7542 25.2341 15.7813C25.1801 15.7542 25.153 15.7542 25.126 15.7542C25.0448 15.7001 24.9637 15.7001 24.8825 15.7542C24.8555 15.7813 24.8015 15.7813 24.8284 15.8624C24.8284 15.8894 24.8284 15.9165 24.8015 15.9165C24.7743 15.9165 24.7743 15.8894 24.7743 15.8624C24.7743 15.8624 24.7743 15.8354 24.7743 15.8083C24.7473 15.8083 24.7202 15.8083 24.6933 15.8083C24.7202 15.8354 24.7202 15.8624 24.7202 15.8894C24.7202 15.8894 24.7202 15.9165 24.6933 15.9165C24.6121 15.9435 24.5309 15.9706 24.4498 15.9706C24.3957 15.9706 24.3416 15.9706 24.2875 16.0246C24.4498 16.0246 24.585 15.9976 24.7473 15.9976C24.8555 15.9976 24.9908 15.9706 25.099 15.9706C25.1801 15.9706 25.2611 15.9706 25.3423 15.9165C25.3694 15.9165 25.3694 15.9165 25.3964 15.9165C25.4776 15.9435 25.5587 15.9165 25.6398 15.9165C25.6669 15.9165 25.721 15.9165 25.7751 15.9165C25.8292 15.9435 25.9103 15.9435 25.9644 15.8894C25.9914 15.8624 26.0456 15.8354 26.0726 15.8624C26.0996 15.8624 26.1267 15.8624 26.1807 15.8624C26.1807 15.9165 26.2078 15.9435 26.2078 15.9976C26.2078 15.9706 26.2349 15.9706 26.2349 15.9706C26.2349 15.9435 26.2619 15.9165 26.2889 15.9435C26.3431 15.9976 26.3701 15.9706 26.4242 15.8894C26.4513 15.8354 26.5324 15.8354 26.5864 15.8354C26.5864 15.8624 26.5594 15.8624 26.5594 15.8894H26.5324C26.5324 15.8894 26.5324 15.8894 26.5324 15.9165C26.5594 15.9165 26.5594 15.9165 26.5864 15.9165C26.6406 15.9435 26.6676 15.9706 26.7217 15.9706C26.7488 15.9706 26.7757 15.9435 26.8028 15.9706C26.8028 15.9706 26.8028 15.9706 26.8299 15.9706H26.8028C26.8299 15.9165 26.857 15.8894 26.857 15.8354C26.911 15.8083 26.9651 15.7813 26.9921 15.8624C26.9651 15.8624 26.9381 15.8624 26.911 15.8624C26.9381 15.8894 26.9381 15.8894 26.9381 15.8894C26.9921 15.8894 27.0463 15.8894 27.1003 15.8894C27.1003 15.9165 27.1274 15.9165 27.1544 15.9165C27.1815 15.9165 27.2356 15.9435 27.2626 15.9706C27.2356 15.9976 27.2085 16.0246 27.1815 16.0246C26.9921 16.0517 26.8299 16.1058 26.6406 16.1058C26.6406 16.1058 26.6406 16.1058 26.6135 16.1329C26.6135 16.1599 26.6406 16.1599 26.6406 16.1599C26.7217 16.1599 26.8299 16.1329 26.911 16.1329C26.9651 16.1329 27.0192 16.1058 27.1003 16.1058C27.2085 16.0787 27.3167 16.0787 27.4249 16.0787C27.506 16.0787 27.6142 16.0517 27.6954 16.0517C27.7494 16.0246 27.8035 16.0246 27.8576 16.0246C27.8847 16.0246 27.9117 16.0246 27.9387 16.0246C27.9929 16.0246 28.0469 16.0246 28.1011 15.9976C28.1281 15.9976 28.1551 15.9976 28.1822 15.9976C28.2362 16.0246 28.2634 16.0246 28.3174 15.9976C28.3174 16.0246 28.3444 16.0517 28.3715 16.0517C28.4255 16.0517 28.4797 16.0517 28.5068 16.0787C28.5337 16.0517 28.5337 15.9706 28.615 15.9976C28.642 15.9976 28.615 16.0246 28.615 16.0517C28.7231 16.1058 28.7772 15.9976 28.8583 15.9976C28.9124 16.0517 28.9936 16.0517 29.0747 16.0517C29.1829 16.0246 29.264 16.0517 29.3722 16.0246C29.3993 16.0246 29.4264 16.0246 29.4533 16.0517C29.4533 16.0787 29.4264 16.0787 29.3993 16.0787C29.3451 16.0787 29.3182 16.1058 29.2911 16.1599C29.3182 16.187 29.3451 16.1599 29.3722 16.1599C29.3993 16.1599 29.4264 16.187 29.4533 16.214L29.4804 16.187L29.5075 16.1599H29.5345C29.6427 16.241 29.7508 16.241 29.8861 16.214C29.9132 16.214 29.9402 16.214 29.9672 16.214C29.9943 16.214 30.0484 16.241 30.0754 16.241C30.1836 16.241 30.2918 16.241 30.3459 16.1329C30.4 16.187 30.4811 16.214 30.5623 16.214C30.6975 16.214 30.8598 16.214 30.995 16.187C31.1843 16.187 31.4006 16.187 31.59 16.187C31.617 16.187 31.6441 16.187 31.6712 16.187C31.7253 16.214 31.7523 16.187 31.8064 16.187C31.8605 16.187 31.9146 16.1599 31.9957 16.1599C32.0227 16.1599 32.0227 16.1599 32.0498 16.1599C32.0227 16.214 31.9957 16.187 31.9687 16.187V16.214C32.0227 16.214 32.0768 16.241 32.1309 16.241C32.185 16.241 32.2121 16.241 32.2662 16.187C32.2391 16.187 32.2121 16.1599 32.185 16.1599C32.2662 16.1329 32.2933 16.1329 32.4284 16.1329C32.4284 16.1599 32.4015 16.1599 32.4015 16.1599C32.3743 16.1599 32.3743 16.1599 32.3743 16.1599C32.3473 16.1599 32.3473 16.187 32.3473 16.187C32.3743 16.187 32.3743 16.214 32.3743 16.214C32.4555 16.187 32.5366 16.214 32.6178 16.187C32.8071 16.1599 32.9964 16.187 33.1858 16.1599C33.4021 16.1599 33.6185 16.1329 33.8619 16.1329C34.0242 16.1329 34.1864 16.1329 34.3488 16.1058C34.4839 16.1058 34.6192 16.1058 34.7545 16.0787C34.7815 16.0787 34.8085 16.0787 34.8356 16.0517C34.8626 16.0246 34.8896 16.0246 34.9438 16.0246C34.9708 16.0246 34.9978 16.0246 35.0249 16.0246C35.0519 16.0246 35.079 16.0246 35.106 15.9976C35.1331 15.9706 35.1872 15.9435 35.2413 15.9165C35.2413 15.9165 35.2142 15.8624 35.2413 15.8354C35.2683 15.8083 35.2413 15.7813 35.2683 15.7542C35.2953 15.7272 35.3224 15.7001 35.3224 15.673C35.3224 15.6189 35.2953 15.5919 35.2683 15.5649C35.2142 15.5108 35.1872 15.4297 35.1872 15.3485C35.1872 15.2944 35.1601 15.2673 35.1601 15.2403C35.1872 15.1592 35.1872 15.051 35.1872 14.9698C35.1601 14.9428 35.1331 14.9428 35.1331 14.9157C35.2142 14.8346 35.2413 14.7535 35.2953 14.6453C35.3494 14.5371 35.3766 14.4289 35.4306 14.3478C35.4576 14.3208 35.4576 14.2937 35.4306 14.2667C35.4035 14.2396 35.4035 14.1855 35.3766 14.1584C35.3766 14.1314 35.3224 14.1044 35.2953 14.0503C35.2683 13.9962 35.2953 13.9692 35.3224 13.9151C35.3494 13.861 35.3766 13.8068 35.4306 13.7528C35.4847 13.6987 35.4847 13.5905 35.5387 13.5635C35.5387 13.5635 35.5387 13.5364 35.5387 13.5094C35.5387 13.3741 35.5117 13.266 35.4576 13.1307C35.4576 13.1037 35.4306 13.0766 35.4035 13.0495C35.3766 13.0225 35.3494 12.9684 35.3224 12.9414C35.2683 12.8603 35.2142 12.8332 35.1601 12.8603L35.1331 12.8873C35.106 12.9143 35.079 12.8873 35.0519 12.8332C35.0519 12.8062 35.0249 12.7792 35.0249 12.7792C34.9438 12.725 34.8896 12.6439 34.8085 12.5627L34.7815 12.5357C34.6733 12.5087 34.5921 12.4005 34.4839 12.3463C34.4299 12.2652 34.3488 12.2382 34.2676 12.2382C34.2135 12.1841 34.1324 12.2382 34.0782 12.1571C34.0782 12.13 34.0513 12.1571 34.0242 12.1571C33.9971 12.1571 33.9701 12.1571 33.9431 12.1571C33.8889 12.13 33.8619 12.13 33.8078 12.1571C33.7807 12.1571 33.7537 12.1571 33.6996 12.1571C33.6726 12.1571 33.6726 12.1571 33.6456 12.1571C33.6996 12.2111 33.7537 12.1571 33.7807 12.2111C33.7807 12.2382 33.7807 12.2652 33.7537 12.2652C33.7267 12.2922 33.6996 12.2922 33.6996 12.2922C33.6726 12.2652 33.6185 12.2652 33.5914 12.2922C33.5914 12.2922 33.5644 12.2922 33.5374 12.2922C33.5103 12.2382 33.4562 12.2382 33.4292 12.2652C33.3751 12.2922 33.321 12.2652 33.2669 12.2922L33.2398 12.2652C33.2398 12.2382 33.2398 12.2111 33.2669 12.2111C33.321 12.2111 33.348 12.1841 33.4021 12.2111C33.4562 12.2111 33.4833 12.2111 33.5103 12.2111V12.1841L33.4833 12.1571C33.2669 12.13 33.0505 12.13 32.8341 12.103C32.8341 12.1571 32.8341 12.1571 32.8611 12.1571L32.8883 12.13C32.9153 12.13 32.9153 12.13 32.9153 12.1571C32.9153 12.1841 32.9153 12.2111 32.8883 12.2111C32.8883 12.2111 32.8611 12.2111 32.8341 12.2111C32.726 12.2111 32.726 12.2111 32.6448 12.2382C32.6178 12.1841 32.6178 12.103 32.5637 12.0489C32.5366 12.0219 32.5096 12.0219 32.4825 12.0219C32.4284 12.0489 32.3473 12.0489 32.2933 11.9948C32.2121 11.9948 32.1309 11.9406 32.0498 11.9948C31.9957 12.0219 31.9687 11.9948 31.9416 11.9677C31.9416 11.9677 31.9146 11.9677 31.8875 11.9677C31.8875 11.9948 31.9146 12.0219 31.9146 12.0219C31.8605 12.0489 31.8334 12.0489 31.8064 11.9948C31.7794 11.9406 31.7253 11.9406 31.6982 11.9406C31.6441 11.9406 31.617 11.9677 31.563 11.9406C31.5359 11.9136 31.5088 11.9677 31.5088 11.9948C31.5088 12.0219 31.5088 12.0489 31.5359 12.0759C31.5359 12.103 31.5359 12.103 31.5088 12.1571C31.4819 12.13 31.4548 12.103 31.4548 12.103C31.4278 12.103 31.4278 12.13 31.4278 12.1571C31.4278 12.2111 31.4006 12.2382 31.3737 12.2382C31.3195 12.2382 31.2385 12.2111 31.1843 12.2111C31.1573 12.2111 31.1573 12.1841 31.1302 12.1841C31.1031 12.1841 31.1031 12.1571 31.1031 12.1571C31.1031 12.103 31.1302 12.103 31.1302 12.103C31.1573 12.0759 31.1573 12.0489 31.1843 12.0489C31.1843 12.0489 31.1843 12.0219 31.1843 11.9948H31.1573L31.1302 12.0219C31.1302 12.0759 31.1302 12.103 31.1031 12.103C31.0762 12.103 31.0491 12.103 31.022 12.0219C31.022 12.0219 31.022 11.9948 30.995 11.9948C30.9409 11.9948 30.8868 11.9948 30.8598 11.9948C30.8057 11.9677 30.8057 12.103 30.7516 12.0759C30.7516 12.0489 30.7516 12.0489 30.7516 12.0219H30.7245C30.7245 12.103 30.6975 12.13 30.6434 12.1571C30.5893 12.103 30.5623 11.9948 30.4811 11.9948C30.4811 12.0219 30.5082 12.0489 30.5082 12.0759C30.5082 12.103 30.4811 12.13 30.4811 12.1571C30.5082 12.1571 30.5082 12.1571 30.5082 12.1841C30.5352 12.2111 30.5352 12.2382 30.5082 12.2652C30.4811 12.2922 30.427 12.2652 30.427 12.2382C30.427 12.1841 30.4 12.1571 30.4 12.103C30.3729 12.103 30.3459 12.103 30.3459 12.13C30.3189 12.1841 30.2918 12.2382 30.2377 12.2382C30.2107 12.2382 30.2107 12.2652 30.1836 12.2922C30.1295 12.2652 30.1025 12.1841 30.1025 12.103C30.0484 12.103 29.9943 12.103 29.9402 12.13C29.9402 12.1841 29.9402 12.1841 29.9672 12.1841C29.9943 12.1841 30.0214 12.1841 30.0484 12.1841C30.0484 12.2382 29.9943 12.2652 29.9943 12.3193C29.9672 12.2922 29.9132 12.2652 29.8861 12.2652C29.859 12.2652 29.805 12.2922 29.7779 12.2922C29.7239 12.2922 29.6697 12.2652 29.6427 12.2652C29.6427 12.2111 29.6968 12.2382 29.6968 12.1571C29.6697 12.1571 29.6157 12.1571 29.5886 12.1841C29.5886 12.2382 29.5615 12.2652 29.5615 12.2922C29.4804 12.2652 29.4264 12.2652 29.3722 12.2922H29.3451C29.3182 12.2922 29.3182 12.2652 29.3182 12.2382C29.3182 12.2111 29.3182 12.1841 29.3451 12.1841C29.3451 12.1841 29.3722 12.1841 29.3993 12.1571C29.3451 12.1571 29.3182 12.1571 29.2911 12.1571C29.264 12.1571 29.264 12.1841 29.264 12.1841C29.2911 12.2652 29.2099 12.2922 29.1829 12.3193C29.1288 12.3734 29.1018 12.3463 29.0747 12.2111C29.0206 12.1841 28.9665 12.2111 28.9395 12.1841C28.8854 12.1571 28.8583 12.1571 28.8313 12.1571C28.8043 12.1571 28.7502 12.1841 28.7231 12.1841C28.6961 12.2111 28.669 12.1841 28.642 12.2111C28.5879 12.1841 28.5609 12.2652 28.5068 12.2652C28.5068 12.2922 28.5337 12.3193 28.5337 12.3734C28.5068 12.4005 28.4527 12.4005 28.4255 12.4275C28.3986 12.4275 28.3715 12.4005 28.3715 12.3734C28.3715 12.3463 28.3715 12.3193 28.3715 12.2922C28.2634 12.2922 28.1551 12.2922 28.0469 12.3463C27.9929 12.3463 27.9659 12.3734 27.9117 12.3734C27.8035 12.2922 27.7766 12.2922 27.7224 12.2382ZM28.8583 12.2652C28.8313 12.2652 28.8043 12.2922 28.7772 12.2922C28.8043 12.1841 28.8313 12.1841 28.9395 12.2652C28.9124 12.2652 28.8854 12.2382 28.8583 12.2652ZM28.5337 12.2922C28.5337 12.2652 28.5609 12.2382 28.5609 12.2382C28.5609 12.2111 28.5879 12.2111 28.5609 12.1841C28.5609 12.1841 28.5608 12.2111 28.5879 12.2111C28.615 12.2382 28.615 12.2382 28.615 12.2922C28.5879 12.2922 28.5609 12.3193 28.5337 12.2922ZM30.8868 12.0759C30.8868 12.0759 30.8868 12.0489 30.8598 12.0489C30.8598 12.0489 30.8598 12.0219 30.8868 12.0219C30.8868 12.0489 30.9138 12.0489 30.8868 12.0759ZM33.2128 12.2111C33.1858 12.2111 33.1858 12.2111 33.2128 12.2111V12.2111ZM30.7245 16.0787C30.6975 16.0787 30.6975 16.0787 30.7245 16.0787V16.0787ZM30.5623 16.0787C30.5352 16.0787 30.5352 16.0787 30.5623 16.0787V16.0787ZM30.2377 16.1058C30.2647 16.1058 30.2647 16.1329 30.2377 16.1058C30.2377 16.1329 30.2377 16.1329 30.2377 16.1058ZM29.7779 16.0246C29.832 15.9706 29.832 15.9706 29.8861 15.9976C29.859 16.0246 29.832 16.0517 29.7779 16.0246ZM29.6427 16.0246C29.6157 16.0246 29.6157 16.0246 29.5886 16.0246C29.6157 15.9976 29.6427 15.9976 29.6427 16.0246ZM26.6406 15.8354C26.6676 15.8354 26.6676 15.8624 26.6406 15.8354C26.6406 15.8624 26.6676 15.8624 26.6406 15.8354ZM26.2889 15.8624C26.316 15.8894 26.2889 15.8894 26.2889 15.8894C26.2889 15.8894 26.2889 15.8894 26.2889 15.8624ZM25.8292 15.6189C25.8021 15.646 25.8021 15.6189 25.8021 15.6189C25.8021 15.6189 25.8021 15.5919 25.8292 15.6189ZM26.2078 15.646C26.1807 15.646 26.1807 15.646 26.1537 15.673C26.1267 15.7001 26.0996 15.673 26.0456 15.6189C26.1267 15.6189 26.1537 15.646 26.2078 15.646ZM27.8306 15.7001C27.8306 15.7272 27.8306 15.7272 27.8306 15.7001V15.7001ZM28.4255 15.9165C28.4527 15.8894 28.5068 15.8894 28.5337 15.8894C28.5879 15.8894 28.642 15.8894 28.6961 15.8624C28.7502 15.8624 28.7772 15.8354 28.8043 15.8354H28.8313C28.8583 15.8354 28.8854 15.8354 28.9124 15.8624C28.8313 15.8894 28.7772 15.8894 28.7231 15.9165C28.6961 15.9165 28.6961 15.9165 28.669 15.9165C28.5879 15.8894 28.5068 15.9165 28.4255 15.9165ZM29.2099 15.646C29.237 15.6189 29.237 15.6189 29.264 15.646C29.237 15.646 29.237 15.646 29.2099 15.646ZM29.6427 15.6189C29.6157 15.6189 29.5886 15.6189 29.5886 15.6189C29.6157 15.5919 29.6157 15.5919 29.6427 15.6189ZM28.7231 15.7542C28.6961 15.7542 28.6961 15.7542 28.7231 15.7542V15.7542ZM28.1281 15.7001C28.1552 15.673 28.1552 15.7001 28.1281 15.7001C28.1552 15.673 28.1551 15.673 28.1551 15.7001C28.1551 15.7001 28.1552 15.7001 28.1281 15.7001C28.1552 15.7001 28.1552 15.7001 28.1281 15.7001ZM27.0192 15.6189C27.0192 15.6189 27.0463 15.6189 27.0733 15.6189C27.0463 15.646 27.0463 15.646 27.0192 15.6189C27.0192 15.646 27.0192 15.646 27.0192 15.6189ZM26.3971 15.6189L26.4242 15.5919C26.4513 15.5919 26.4513 15.6189 26.4513 15.673C26.4242 15.646 26.3971 15.673 26.3971 15.6189ZM26.2889 15.6189C26.2619 15.646 26.2619 15.646 26.2889 15.6189C26.2619 15.6189 26.2619 15.6189 26.2889 15.6189ZM26.6676 15.5108C26.6946 15.5378 26.7217 15.5378 26.7757 15.5649C26.7217 15.5919 26.7217 15.5919 26.6676 15.5108ZM25.8833 15.7813C25.8562 15.7542 25.8562 15.7542 25.8562 15.7272C25.8562 15.7001 25.8562 15.7001 25.8833 15.673H25.9103C25.8833 15.7272 25.8833 15.7272 25.8833 15.7813ZM27.3438 15.9435L27.3167 15.9706C27.2897 15.9706 27.2897 15.9435 27.2626 15.9435C27.2626 15.9165 27.2897 15.9165 27.2897 15.8894C27.3438 15.8894 27.3708 15.9165 27.3438 15.9435ZM27.479 15.8894C27.4519 15.8894 27.4519 15.8894 27.4519 15.8894C27.479 15.8894 27.479 15.8894 27.479 15.8894ZM27.479 15.8894C27.479 15.9165 27.479 15.9165 27.506 15.9165C27.506 15.9165 27.506 15.9165 27.479 15.9165C27.479 15.9165 27.479 15.9165 27.479 15.8894ZM28.3174 15.7542C28.3715 15.7542 28.4255 15.7542 28.4797 15.7542C28.5068 15.7542 28.5068 15.7542 28.5337 15.7542C28.4255 15.8354 28.4255 15.8354 28.3174 15.7813C28.3174 15.7813 28.3174 15.7813 28.3174 15.7542ZM27.0192 15.7813L27.0463 15.8083C27.0192 15.8083 27.0192 15.8083 26.9921 15.8083C26.9921 15.8083 26.9921 15.8083 27.0192 15.7813ZM25.0448 15.8354C25.0718 15.8354 25.0718 15.8354 25.0448 15.8354V15.8354ZM24.9637 15.8894C24.9366 15.8624 24.9096 15.8624 24.9096 15.8354C24.9096 15.8354 24.9096 15.8083 24.9096 15.7813C24.9637 15.8083 24.9637 15.8083 24.9637 15.8894ZM25.3423 15.646L25.3694 15.673L25.3423 15.7001C25.3423 15.673 25.3153 15.673 25.3153 15.646C25.3153 15.646 25.3423 15.6189 25.3423 15.646ZM25.6939 15.6189C25.6669 15.646 25.6669 15.673 25.6669 15.7272C25.6939 15.7542 25.748 15.7001 25.7751 15.7813C25.6939 15.7813 25.6128 15.7272 25.5858 15.8624C25.5046 15.8083 25.4505 15.8624 25.3694 15.8083L25.3423 15.8354C25.3423 15.8354 25.3153 15.8354 25.3153 15.8624C25.3153 15.7813 25.3153 15.7813 25.3423 15.7813C25.3964 15.7813 25.4235 15.7813 25.4776 15.7542C25.5046 15.7542 25.5046 15.7272 25.5317 15.7272C25.5046 15.7001 25.5046 15.7272 25.4776 15.7272C25.4505 15.7272 25.4235 15.7001 25.4235 15.646C25.5046 15.5919 25.5858 15.5649 25.6939 15.6189ZM24.0982 15.6189L24.0712 15.646C24.0441 15.673 24.0171 15.646 24.0171 15.6189C24.0171 15.6189 24.017 15.5919 24.0441 15.5919C24.0712 15.5919 24.0712 15.5919 24.0982 15.6189ZM24.1523 15.5649C24.1523 15.5919 24.1794 15.5919 24.1523 15.5649V15.5649ZM24.3957 15.5378C24.4227 15.5378 24.4227 15.5649 24.4227 15.5919C24.3957 15.6189 24.3687 15.646 24.3416 15.646C24.3416 15.5649 24.3416 15.5649 24.3416 15.5649C24.3416 15.5378 24.3687 15.5378 24.3957 15.5378ZM24.5039 15.5108C24.5309 15.5378 24.5039 15.5378 24.5039 15.5649C24.4768 15.5649 24.4768 15.5378 24.5039 15.5108C24.4768 15.5378 24.4768 15.5108 24.5039 15.5108ZM24.4769 15.3756C24.5039 15.3756 24.5039 15.3756 24.5309 15.3756C24.5309 15.3756 24.5309 15.3756 24.5309 15.4026C24.5039 15.4026 24.4769 15.3756 24.4769 15.3756ZM24.5039 15.2403C24.4768 15.2403 24.4768 15.2403 24.5039 15.2403C24.4768 15.2133 24.4768 15.2133 24.5039 15.2403ZM24.7473 15.2403C24.7473 15.2133 24.7473 15.2133 24.7473 15.2133C24.7743 15.2133 24.7743 15.2133 24.7473 15.2403ZM23.99 15.2673C24.017 15.2673 24.0441 15.2673 24.0441 15.2944C24.0441 15.2944 24.0441 15.2944 24.0441 15.3214C24.017 15.3485 23.99 15.3214 23.99 15.3214C23.99 15.2944 23.99 15.2673 23.99 15.2673ZM25.0178 14.9969C25.0178 14.9699 25.0178 14.9699 25.0178 14.9969V14.9969ZM24.9096 15.024C24.9096 14.9969 24.9096 14.9969 24.9096 15.024V15.024ZM24.6662 15.051C24.6662 15.024 24.6662 15.024 24.6662 15.024H24.6933V15.051C24.6933 15.051 24.6933 15.051 24.6662 15.051ZM24.4498 15.051V15.0781C24.4498 15.0781 24.4498 15.1051 24.4227 15.1051C24.3687 15.1051 24.3416 15.1051 24.2875 15.1051C24.2875 15.0781 24.2875 15.0781 24.2875 15.051C24.3416 15.024 24.4227 15.024 24.4498 15.051ZM24.7743 14.7535C24.8015 14.7805 24.7743 14.7805 24.7743 14.7805C24.7473 14.7805 24.7473 14.7805 24.7202 14.7805V14.7535C24.7473 14.7265 24.7743 14.7265 24.7743 14.7535ZM24.8555 14.7535C24.8825 14.7265 24.9096 14.7265 24.9366 14.7535C24.9096 14.7535 24.8825 14.8076 24.8555 14.7535ZM24.4227 14.9157C24.4498 14.8887 24.4498 14.8887 24.4227 14.9157C24.4498 14.9157 24.4498 14.9157 24.4227 14.9157ZM24.2064 14.8887C24.2064 14.9157 24.2064 14.9157 24.2064 14.9428C24.2064 14.9428 24.2064 14.9428 24.1794 14.9157C24.1794 14.9157 24.1794 14.9157 24.2064 14.8887ZM24.2875 14.7805C24.3146 14.8346 24.3146 14.8887 24.3416 14.9428C24.3146 14.9428 24.2875 14.9428 24.2334 14.9428C24.2605 14.8887 24.2605 14.8346 24.2875 14.7805ZM25.5046 14.4019C25.5046 14.3749 25.5046 14.3749 25.5046 14.3749C25.5317 14.3749 25.5317 14.3749 25.5046 14.4019C25.5317 14.4019 25.5317 14.3749 25.5046 14.4019ZM25.126 14.4019C25.153 14.4019 25.153 14.4019 25.153 14.4019L25.1801 14.4289L25.153 14.456C25.153 14.456 25.126 14.4289 25.126 14.4019ZM24.4769 14.456C24.5039 14.456 24.5039 14.483 24.4769 14.456C24.4769 14.483 24.4769 14.483 24.4769 14.456ZM26.5864 14.1584C26.5594 14.1314 26.5594 14.1314 26.5864 14.1584C26.5594 14.1314 26.5864 14.1314 26.5864 14.1314C26.5864 14.1044 26.5864 14.1314 26.5864 14.1584C26.5864 14.1314 26.5864 14.1314 26.5864 14.1584ZM26.2889 14.1584C26.316 14.1044 26.3431 14.0773 26.3971 14.1314C26.3431 14.1855 26.316 14.1855 26.2889 14.1584ZM24.7743 14.2667C24.8284 14.2667 24.8555 14.2667 24.9096 14.2667C24.9637 14.2667 24.9908 14.2667 25.0448 14.2396C25.0718 14.2396 25.099 14.2396 25.126 14.2396C25.153 14.2396 25.1801 14.2396 25.153 14.2937C25.0718 14.2937 25.0178 14.2937 24.9366 14.3208C24.8825 14.3478 24.8284 14.3478 24.7743 14.2667ZM25.4776 14.1855C25.5587 14.2396 25.6669 14.2125 25.748 14.1855C25.8021 14.1584 25.8833 14.1584 25.9374 14.1584C25.9914 14.1584 26.0185 14.1584 26.0726 14.1314C26.0996 14.1314 26.1537 14.0773 26.2078 14.1855C26.1267 14.1855 26.0726 14.1855 26.0185 14.1855C25.9374 14.1855 25.8833 14.1855 25.8021 14.2396C25.721 14.2937 25.6669 14.2125 25.5858 14.2396C25.5587 14.2396 25.5317 14.2396 25.5046 14.2396C25.3965 14.2396 25.3153 14.2667 25.2071 14.2396C25.3153 14.2396 25.3964 14.2125 25.4776 14.1855ZM24.6662 14.2125L24.6391 14.1855C24.6391 14.1855 24.6391 14.1584 24.6662 14.1584C24.7202 14.1584 24.7473 14.1584 24.8015 14.1584V14.1855C24.7473 14.1855 24.7202 14.2125 24.6662 14.2125ZM25.099 13.5635C25.0718 13.5635 25.0718 13.5635 25.0448 13.5635C25.0448 13.5635 25.0448 13.5364 25.0178 13.5364L25.0448 13.5094C25.0718 13.5094 25.099 13.5094 25.099 13.5635ZM25.721 13.5094C25.721 13.5094 25.721 13.4823 25.6939 13.4823C25.721 13.4823 25.748 13.4823 25.7751 13.4823C25.8021 13.4823 25.8292 13.4823 25.8562 13.4823V13.5094C25.8292 13.5364 25.7751 13.5094 25.721 13.5094ZM26.0185 13.5094C25.9914 13.5364 25.9644 13.5364 25.9374 13.5094V13.4823V13.4552C25.9644 13.4552 25.9914 13.4552 26.0185 13.5094ZM26.1807 13.4823C26.2078 13.4552 26.2078 13.4552 26.2078 13.4823C26.2349 13.4823 26.2078 13.4823 26.1807 13.4823C26.2078 13.5094 26.2078 13.5094 26.1807 13.4823ZM26.6135 13.4552C26.6135 13.4011 26.6406 13.4282 26.6676 13.4282H26.6946C26.6946 13.4282 26.6946 13.4282 26.6946 13.4552C26.6676 13.4823 26.6135 13.4823 26.6135 13.4552ZM25.6128 13.6716C25.6669 13.6176 25.748 13.6716 25.8021 13.6446C25.8021 13.6446 25.8292 13.6716 25.8292 13.6987C25.8292 13.7257 25.8021 13.7528 25.8021 13.7528C25.7751 13.7528 25.748 13.7528 25.6939 13.7528C25.6939 13.7798 25.6939 13.8068 25.6939 13.8068L25.6669 13.8339C25.6398 13.7798 25.6128 13.7257 25.6128 13.6716ZM25.5587 13.4823C25.5858 13.5635 25.5858 13.5635 25.4776 13.5905C25.4776 13.6176 25.5046 13.6176 25.5046 13.6446C25.5046 13.6716 25.4776 13.7257 25.4776 13.7528C25.5046 13.7798 25.5046 13.7798 25.5317 13.8068C25.4776 13.8068 25.4505 13.8068 25.4235 13.7798C25.3964 13.7528 25.3964 13.6987 25.4235 13.6716C25.4505 13.6446 25.4505 13.5905 25.4235 13.5635C25.3964 13.5364 25.3964 13.5094 25.4235 13.4823C25.4776 13.4823 25.5046 13.4823 25.5587 13.4823ZM25.5046 13.4282C25.5046 13.4011 25.5046 13.4011 25.5046 13.4282C25.5317 13.4011 25.5317 13.4011 25.5046 13.4282ZM26.8299 13.1848C26.857 13.1848 26.857 13.1848 26.857 13.2119H26.8299C26.857 13.2119 26.8299 13.2119 26.8299 13.1848ZM26.6406 13.2389C26.6406 13.2119 26.6406 13.2119 26.6406 13.2119H26.6676V13.2389H26.6406ZM26.5594 13.2119C26.5594 13.2389 26.5594 13.2389 26.5594 13.2389C26.5324 13.2389 26.5324 13.2389 26.5594 13.2119C26.5324 13.2389 26.5324 13.2119 26.5594 13.2119ZM26.0726 12.7792C26.0726 12.7521 26.0726 12.7521 26.0726 12.7792C26.0726 12.7521 26.0996 12.7521 26.0996 12.7521C26.0996 12.7521 26.0996 12.7521 26.0726 12.7792ZM32.5366 12.3193C32.5096 12.3463 32.5096 12.3463 32.4825 12.3734C32.4555 12.3463 32.4555 12.3193 32.4284 12.2652C32.4825 12.2652 32.4825 12.2652 32.5096 12.2652L32.5366 12.2922V12.3193ZM32.2391 12.2922C32.2121 12.2922 32.2121 12.3193 32.2391 12.2922C32.2121 12.3193 32.2121 12.3193 32.2391 12.2922ZM33.4292 12.3463C33.4021 12.3463 33.4021 12.3463 33.4021 12.3463H33.4292ZM33.5103 12.3463C33.5374 12.3463 33.5374 12.3463 33.5103 12.3463V12.3463ZM26.6406 13.1578C26.6135 13.1307 26.6406 13.1307 26.6406 13.1578V13.1578ZM26.1537 13.1037C26.2078 13.1037 26.2619 13.1307 26.316 13.1307C26.3431 13.1307 26.3431 13.1578 26.3701 13.1578C26.3431 13.1578 26.2889 13.1578 26.2619 13.1848C26.2349 13.1848 26.2078 13.2119 26.1807 13.1848C26.1807 13.1848 26.1537 13.1578 26.1537 13.1307C26.1267 13.1037 26.1537 13.1037 26.1537 13.1037ZM26.7217 12.9955L26.7488 13.0225C26.7488 13.0495 26.7488 13.0766 26.7488 13.1037H26.7217C26.7217 13.0766 26.6946 13.0495 26.6946 13.0225C26.6946 13.0225 26.6946 12.9955 26.7217 12.9955ZM28.5879 12.7521C28.615 12.725 28.642 12.725 28.642 12.7521C28.642 12.7521 28.642 12.7792 28.615 12.7792C28.615 12.7792 28.615 12.7792 28.5879 12.7521ZM26.2349 12.9955V13.0225C26.2078 13.0225 26.2078 12.9955 26.2349 12.9955C26.2078 12.9955 26.2078 12.9684 26.2349 12.9955C26.2349 12.9684 26.2078 12.9684 26.2349 12.9955ZM26.4513 12.8873C26.4782 12.9143 26.4513 12.9143 26.4513 12.9414C26.4513 12.9414 26.4242 12.9143 26.4513 12.8873ZM26.4782 12.7521C26.4782 12.7792 26.4782 12.7792 26.4782 12.7521C26.4782 12.7792 26.4782 12.7792 26.4782 12.7792C26.4782 12.7792 26.4782 12.7792 26.4513 12.7521C26.4513 12.7792 26.4782 12.7792 26.4782 12.7521ZM26.6406 12.9414C26.5864 12.8873 26.5594 12.8603 26.5594 12.8332V12.7792L26.5864 12.7521C26.5864 12.7792 26.6135 12.7792 26.6406 12.8062C26.6406 12.8332 26.6406 12.8603 26.6406 12.9414ZM31.9957 12.2652C31.9957 12.2382 32.0227 12.2382 31.9957 12.2652C32.0227 12.2382 32.0227 12.2382 31.9957 12.2652C32.0227 12.2652 32.0227 12.2652 31.9957 12.2652ZM32.3202 12.2382C32.3202 12.2652 32.3202 12.2652 32.3202 12.2382V12.2382ZM27.7224 12.6439C27.7494 12.6439 27.7494 12.6709 27.7494 12.6709L27.7224 12.6979C27.6954 12.6979 27.6954 12.6709 27.6683 12.6709C27.7224 12.6709 27.7224 12.6439 27.7224 12.6439ZM28.8854 12.4546C28.9124 12.4546 28.9124 12.4546 28.8854 12.4546V12.4546ZM27.0733 12.5087C27.0733 12.4816 27.1003 12.4816 27.0733 12.5087C27.1003 12.4816 27.1003 12.5087 27.0733 12.5087ZM27.8847 12.4275C27.9117 12.4005 27.9117 12.3734 27.9387 12.3734C27.9387 12.3734 27.9387 12.3734 27.9659 12.3734C27.9387 12.4275 27.9117 12.4275 27.8847 12.4275ZM30.2918 12.2111C30.2918 12.2111 30.2647 12.2111 30.2647 12.1841C30.2647 12.1841 30.2647 12.1571 30.2918 12.1571C30.2918 12.1571 30.3189 12.1571 30.3459 12.1571C30.2918 12.1841 30.2918 12.2111 30.2918 12.2111ZM30.5623 12.1841C30.5352 12.1841 30.5352 12.1841 30.5623 12.1841C30.5352 12.1571 30.5623 12.1571 30.5623 12.13C30.5623 12.13 30.5623 12.13 30.5893 12.1571C30.5623 12.1571 30.5623 12.1841 30.5623 12.1841ZM30.995 12.1571C30.968 12.1571 30.968 12.1571 30.995 12.1571C30.968 12.13 30.995 12.13 30.995 12.13C30.995 12.13 30.995 12.13 30.995 12.1571ZM29.0477 12.3734C29.0477 12.3463 29.0477 12.3463 29.0747 12.3193C29.0747 12.3193 29.1018 12.3193 29.1018 12.3463C29.0747 12.3734 29.0747 12.3734 29.0747 12.4005L29.0477 12.3734ZM28.1551 12.4546C28.1822 12.4546 28.1822 12.4816 28.1551 12.4546V12.4546ZM27.8306 12.3734C27.8306 12.4005 27.8306 12.4275 27.8576 12.4275C27.8576 12.4546 27.8576 12.4546 27.8576 12.4546C27.8306 12.4816 27.8035 12.4546 27.8035 12.4546C27.7766 12.4275 27.7766 12.3734 27.7766 12.3193C27.8306 12.3193 27.8306 12.3463 27.8306 12.3734Z" fill="white"/>
<path d="M25.3153 12.9954C25.3153 13.0495 25.3424 13.1037 25.3424 13.1578C25.3964 13.1578 25.4235 13.1848 25.4505 13.1037C25.4505 13.0495 25.5046 13.0495 25.5317 13.0495C25.5587 13.0766 25.5317 13.1037 25.5587 13.1307C25.5857 13.1307 25.5857 13.1578 25.6399 13.1578C25.6399 13.1307 25.667 13.1037 25.6939 13.0495C25.5587 12.9413 25.4505 12.9954 25.3153 12.9954ZM25.5857 13.0495C25.6128 13.0495 25.6128 13.0495 25.5857 13.0495C25.6128 13.0766 25.6128 13.0766 25.6128 13.0766C25.6128 13.0766 25.5857 13.0766 25.5857 13.0495Z" fill="white"/>
<path d="M23.8278 13.6447C23.8818 13.6988 23.936 13.6717 23.963 13.6717C23.963 13.6717 23.963 13.6988 23.99 13.7258C23.936 13.7258 23.9089 13.6988 23.8818 13.6988C23.8278 13.6988 23.8007 13.7258 23.7467 13.7258C23.6925 13.7258 23.6114 13.7528 23.5573 13.7258C23.5303 13.7258 23.5303 13.6988 23.5303 13.6717C23.5844 13.6717 23.6114 13.6717 23.6655 13.6717C23.7196 13.6717 23.7737 13.6447 23.8007 13.6447H23.8278Z" fill="white"/>
<path d="M25.1801 13.0494C25.0719 13.0762 24.9907 13.0762 24.9095 13.0762C25.0177 13.0226 25.0989 13.0226 25.1801 13.0494Z" fill="white"/>
<path d="M23.9902 14.483C23.909 14.483 23.8278 14.5101 23.7467 14.456C23.7737 14.456 23.7737 14.429 23.8008 14.429C23.8549 14.483 23.8819 14.429 23.936 14.4019C23.9631 14.429 24.0171 14.456 24.0442 14.456C24.0442 14.483 24.0171 14.483 23.9902 14.483Z" fill="white"/>
<path d="M23.7465 14.4831C23.6925 14.456 23.6113 14.4831 23.5572 14.5101C23.5302 14.5101 23.5302 14.5101 23.4761 14.4831C23.5843 14.429 23.6654 14.402 23.7465 14.4831Z" fill="white"/>
<path d="M26.1539 12.4816C26.1268 12.5087 26.0727 12.5087 26.0457 12.5357C26.0186 12.5357 25.9916 12.5357 25.9916 12.5087C25.9916 12.4816 25.9916 12.4546 25.9916 12.4275C26.0457 12.4546 26.0998 12.4546 26.1268 12.4546C26.1268 12.4546 26.1539 12.4546 26.1539 12.4816Z" fill="white"/>
<path d="M26.1267 12.5897C26.1808 12.5627 26.235 12.6167 26.262 12.6167C26.2078 12.6167 26.1808 12.6979 26.1267 12.5897Z" fill="white"/>
<path d="M24.0173 16.0787C24.0985 16.0517 24.1796 16.0517 24.2607 16.0246C24.2878 16.0246 24.3148 16.0246 24.3418 16.0517C24.2067 16.0787 24.0985 16.0787 24.0173 16.0787Z" fill="white"/>
<path d="M25.7751 13.0225C25.8021 12.9143 25.8293 12.9143 25.9103 12.9684C25.8293 13.0225 25.8293 13.0225 25.7751 13.0225Z" fill="white"/>
<path d="M23.9359 14.9157C23.9359 14.9157 23.9088 14.8886 23.8817 14.8886C23.9088 14.8616 23.9359 14.8346 23.9628 14.8075C23.9628 14.8346 23.99 14.8616 23.99 14.8886C23.9628 14.8886 23.9359 14.9157 23.9359 14.9157Z" fill="white"/>
<path d="M24.4227 15.8083C24.4227 15.8354 24.4227 15.8624 24.3958 15.8894C24.3958 15.8624 24.3688 15.8083 24.3688 15.7813C24.3958 15.7542 24.3958 15.7543 24.4227 15.8083Z" fill="white"/>
<path d="M23.5842 14.8346C23.5571 14.8346 23.503 14.8346 23.449 14.8076C23.53 14.7535 23.53 14.7535 23.5571 14.7805C23.5571 14.8076 23.5842 14.8076 23.5842 14.8346Z" fill="white"/>
<path d="M23.6115 15.024C23.6385 15.051 23.6385 15.0781 23.6656 15.1321C23.6115 15.1321 23.5845 15.1051 23.5845 15.0781C23.5845 15.051 23.5845 15.051 23.6115 15.024Z" fill="white"/>
<path d="M22.6649 15.3484C22.6919 15.3484 22.6919 15.3485 22.6919 15.4026C22.6649 15.4026 22.6107 15.4026 22.5837 15.4026C22.5837 15.3755 22.5837 15.3755 22.5837 15.3484C22.6107 15.4026 22.6378 15.3484 22.6649 15.3484Z" fill="white"/>
<path d="M24.4496 13.266C24.4496 13.266 24.4496 13.239 24.4496 13.2119C24.4767 13.239 24.5037 13.266 24.5308 13.3201C24.4767 13.3471 24.4496 13.3201 24.4496 13.266Z" fill="white"/>
<path d="M27.56 12.2923C27.56 12.2923 27.56 12.3193 27.56 12.3464H27.5329C27.5329 12.3464 27.506 12.3464 27.4789 12.3464C27.506 12.3193 27.506 12.3193 27.506 12.3193C27.5329 12.2652 27.5329 12.2652 27.56 12.2923Z" fill="white"/>
<path d="M23.2059 13.7527C23.233 13.7259 23.2601 13.7527 23.3141 13.7795C23.2871 13.7795 23.233 13.7795 23.2059 13.7527Z" fill="white"/>
<path d="M23.7465 14.6453C23.7195 14.6182 23.6924 14.6182 23.6654 14.6182C23.6924 14.5641 23.7195 14.5912 23.7465 14.6453Z" fill="white"/>
<path d="M23.3951 14.645C23.4221 14.6183 23.4492 14.6183 23.4763 14.6183C23.4492 14.645 23.4221 14.645 23.3951 14.645Z" fill="white"/>
<path d="M22.3944 15.4296C22.3674 15.4296 22.3402 15.4567 22.3402 15.4567H22.3132V15.4296C22.3402 15.4026 22.3674 15.3755 22.3944 15.4296Z" fill="white"/>
<path d="M29.8321 12.0757C29.805 12.1025 29.778 12.0757 29.7509 12.0757C29.778 12.0489 29.778 12.0489 29.8321 12.0757C29.8321 12.0489 29.805 12.0489 29.8321 12.0757Z" fill="white"/>
<path d="M24.5581 13.9422C24.5852 13.9422 24.6122 13.9422 24.6392 13.9422C24.6122 13.9958 24.6122 13.9958 24.5581 13.9422Z" fill="white"/>
<path d="M23.8819 14.5642C23.8819 14.5912 23.8819 14.6183 23.8819 14.6454C23.855 14.6183 23.828 14.5912 23.828 14.5642C23.828 14.5642 23.855 14.5371 23.8819 14.5642Z" fill="white"/>
<path d="M25.9374 12.6709C25.9644 12.6709 25.9914 12.6438 26.0186 12.6168C26.0186 12.6168 26.0456 12.6168 26.0726 12.6438C26.0186 12.6709 25.9644 12.6709 25.9374 12.6709Z" fill="white"/>
<path d="M25.1258 13.293L25.1528 13.32L25.1258 13.3471C25.0989 13.3471 25.0989 13.3471 25.0989 13.32L25.1258 13.293Z" fill="white"/>
<path d="M24.0171 14.5912C23.963 14.5912 23.963 14.5912 23.9088 14.6182C23.936 14.5912 23.936 14.5641 23.963 14.5641C23.99 14.537 23.99 14.5641 24.0171 14.5912Z" fill="white"/>
<path d="M25.9101 12.4546C25.9371 12.4546 25.9642 12.4546 25.9912 12.4546C25.9642 12.4816 25.9371 12.5086 25.9101 12.5357C25.883 12.4816 25.883 12.4546 25.9101 12.4546Z" fill="white"/>
<path d="M25.9099 13.1307C25.8836 13.0766 25.9099 13.0225 25.9099 12.9955C25.9099 13.0225 25.9363 13.0766 25.9099 13.1307Z" fill="white"/>
<path d="M24.4498 13.8609L24.4228 13.8876C24.4228 13.8876 24.4228 13.8609 24.3959 13.8609C24.3959 13.834 24.4228 13.834 24.4498 13.8609Z" fill="white"/>
<path d="M25.0179 14.104L24.9908 14.0772C24.9908 14.0772 25.0179 14.0504 25.0179 14.0772C25.0179 14.0772 25.0449 14.0772 25.0721 14.104C25.0449 14.104 25.0179 14.104 25.0179 14.104Z" fill="white"/>
<path d="M22.5024 15.4023C22.5294 15.4023 22.5565 15.3755 22.5836 15.3755C22.5565 15.3755 22.5294 15.4291 22.5024 15.4023Z" fill="white"/>
<path d="M25.234 13.1578C25.2616 13.1578 25.2615 13.1578 25.2615 13.1578V13.1847L25.234 13.1578Z" fill="white"/>
<path d="M24.1249 14.2667C24.1249 14.2938 24.098 14.2938 24.098 14.3208C24.071 14.3208 24.071 14.2938 24.071 14.2938C24.071 14.2938 24.098 14.2667 24.1249 14.2667Z" fill="white"/>
<path d="M22.8002 15.3484H22.8277C22.8277 15.3484 22.8277 15.3761 22.8002 15.3761C22.8002 15.4037 22.8002 15.3761 22.8002 15.3484Z" fill="white"/>
<path d="M22.9073 13.8068V13.8339L22.881 13.8068V13.7798C22.881 13.7798 22.881 13.7798 22.9073 13.8068Z" fill="white"/>
<path d="M25.1801 13.6986L25.2071 13.7256V13.7527C25.1801 13.7256 25.1531 13.7256 25.1801 13.6986C25.1801 13.6716 25.1531 13.6986 25.1801 13.6986Z" fill="white"/>
<path d="M24.2065 14.2928C24.2065 14.2667 24.2328 14.2667 24.2591 14.2667C24.2328 14.2928 24.2065 14.2928 24.2065 14.2928Z" fill="white"/>
<path d="M25.7214 16.0525C25.6936 16.0246 25.6936 16.0246 25.7214 16.0246C25.7214 16.0525 25.7214 16.0525 25.7214 16.0525Z" fill="white"/>
<path d="M23.0439 13.8339C23.0161 13.8609 23.0161 13.8339 23.0161 13.8339C23.0161 13.807 23.0161 13.807 23.0439 13.8339Z" fill="white"/>
<path d="M23.449 13.6987C23.449 13.7263 23.449 13.7263 23.449 13.6987C23.4764 13.7263 23.449 13.7263 23.449 13.7263C23.449 13.7539 23.449 13.7263 23.449 13.6987Z" fill="white"/>
<path d="M24.8014 13.8068C24.8014 13.7798 24.8014 13.7528 24.7744 13.7257C24.8014 13.7528 24.8283 13.7798 24.8014 13.8068Z" fill="white"/>
<path d="M25.1244 13.1308C25.1244 13.1569 25.0981 13.1569 25.0718 13.1569C25.0981 13.1308 25.0981 13.1308 25.1244 13.1308Z" fill="white"/>
<path d="M24.6668 13.0772C24.6389 13.0772 24.6389 13.0772 24.6668 13.0772C24.6389 13.0772 24.6389 13.0772 24.6389 13.0772C24.6389 13.0772 24.6389 13.0488 24.6668 13.0772C24.6389 13.0772 24.6389 13.0488 24.6668 13.0772Z" fill="white"/>
<path d="M26.3155 12.4816C26.2892 12.4546 26.3155 12.4546 26.3155 12.4275C26.3155 12.4275 26.3155 12.4546 26.3155 12.4816Z" fill="white"/>
<path d="M31.3195 11.9948C31.3489 11.9948 31.3489 11.9948 31.3195 11.9948C31.3489 11.9948 31.3489 12.0248 31.3195 11.9948Z" fill="white"/>
<path d="M23.4229 15.5919C23.3942 15.5919 23.4229 15.6199 23.4229 15.5919V15.5919Z" fill="white"/>
<path d="M24.5865 15.8353C24.5574 15.8644 24.5865 15.8644 24.5865 15.8353C24.5574 15.8353 24.5574 15.8644 24.5865 15.8353Z" fill="white"/>
<path d="M24.3424 13.3759C24.3133 13.3465 24.3424 13.3465 24.3424 13.3759C24.3424 13.3465 24.3424 13.3465 24.3424 13.3759Z" fill="white"/>
<path d="M24.6661 13.8069C24.6661 13.8345 24.6661 13.8345 24.6661 13.8345C24.694 13.8345 24.6661 13.8345 24.6661 13.8069Z" fill="white"/>
<path d="M24.9908 16.0534C24.9908 16.0241 25.0199 16.0241 24.9908 16.0534C25.0199 16.0534 25.0199 16.0534 24.9908 16.0534Z" fill="white"/>
<path d="M25.7485 12.6979L25.7209 12.6709H25.7485V12.6979Z" fill="white"/>
<path d="M24.2612 14.1596C24.2321 14.131 24.2612 14.131 24.2612 14.1596C24.2612 14.131 24.2612 14.131 24.2612 14.1596Z" fill="white"/>
<path d="M24.7758 13.32C24.7758 13.3493 24.7758 13.3493 24.7758 13.32C24.7468 13.3493 24.7468 13.3493 24.7758 13.32Z" fill="white"/>
<path d="M24.6661 13.5107C24.6661 13.4806 24.6957 13.5107 24.6661 13.5107C24.6957 13.5107 24.6957 13.5107 24.6661 13.5107Z" fill="white"/>
<path d="M27.5871 16.0788C27.56 16.0788 27.5329 16.1059 27.4789 16.0788C27.56 16.0247 27.6411 16.0247 27.6953 16.0517C27.6411 16.0788 27.6141 16.0788 27.5871 16.0788Z" fill="white"/>
<path d="M28.3176 16.16L28.2905 16.187C28.2905 16.187 28.2635 16.187 28.2365 16.16C28.2635 16.1329 28.2635 16.1329 28.2905 16.1329C28.2905 16.1329 28.3176 16.1329 28.3176 16.16Z" fill="white"/>
<path d="M28.6422 16.1599C28.6963 16.1328 28.6963 16.1328 28.7233 16.1058C28.7233 16.1599 28.7233 16.1599 28.6422 16.1599Z" fill="white"/>
<path d="M28.0469 16.0514C28.0199 16.0514 28.0199 16.0514 27.9658 16.0246C28.0199 16.0246 28.0199 15.9978 28.0469 16.0246C28.0469 16.0246 28.074 16.0246 28.0469 16.0514Z" fill="white"/>
<path d="M29.1543 16.0517C29.1543 16.0779 29.1543 16.0779 29.1543 16.0517C29.128 16.0779 29.128 16.0779 29.1017 16.0779V16.0517C29.128 16.0517 29.1543 16.0517 29.1543 16.0517Z" fill="white"/>
<path d="M31.5914 16.2156C31.5623 16.2156 31.5623 16.2156 31.5914 16.2156C31.5623 16.1864 31.5623 16.2156 31.5914 16.2156C31.5914 16.1864 31.5623 16.1864 31.5914 16.2156Z" fill="white"/>
<path d="M30.8329 16.241V16.214L30.8604 16.241H30.8329Z" fill="white"/>
</g>
</svg>
