<svg width="24" height="24" viewBox="0 0 24 24" fill="none" xmlns="http://www.w3.org/2000/svg">
<path fill-rule="evenodd" clip-rule="evenodd" d="M21 17.25V17.25C21 19.3211 19.3211 21 17.25 21V21C15.1789 21 13.5 19.3211 13.5 17.25V17.25C13.5 15.1789 15.1789 13.5 17.25 13.5V13.5C19.3211 13.5 21 15.1789 21 17.25Z" stroke="white" stroke-width="1.2" stroke-linecap="round" stroke-linejoin="round"/>
<path fill-rule="evenodd" clip-rule="evenodd" d="M10.5 17.25V17.25C10.5 19.3211 8.82107 21 6.75 21V21C4.67893 21 3 19.3211 3 17.25V17.25C3 15.1789 4.67893 13.5 6.75 13.5V13.5C8.82107 13.5 10.5 15.1789 10.5 17.25Z" stroke="white" stroke-width="1.2" stroke-linecap="round" stroke-linejoin="round"/>
<path fill-rule="evenodd" clip-rule="evenodd" d="M21 6.75V6.75C21 8.82107 19.3211 10.5 17.25 10.5V10.5C15.1789 10.5 13.5 8.82107 13.5 6.75V6.75C13.5 4.67893 15.1789 3 17.25 3V3C19.3211 3 21 4.67893 21 6.75Z" stroke="white" stroke-width="1.2" stroke-linecap="round" stroke-linejoin="round"/>
<path fill-rule="evenodd" clip-rule="evenodd" d="M10.5 6.75V6.75C10.5 8.82107 8.82107 10.5 6.75 10.5V10.5C4.67893 10.5 3 8.82107 3 6.75V6.75C3 4.67893 4.67893 3 6.75 3V3C8.82107 3 10.5 4.67893 10.5 6.75Z" stroke="white" stroke-width="1.2" stroke-linecap="round" stroke-linejoin="round"/>
</svg>
