<svg width="183" height="80" viewBox="0 0 183 80" fill="none" xmlns="http://www.w3.org/2000/svg">
<mask id="mask0_1463_43481" style="mask-type:luminance" maskUnits="userSpaceOnUse" x="0" y="0" width="183" height="80">
<path d="M183 0.90332H0V79.2864H183V0.90332Z" fill="white"/>
</mask>
<g mask="url(#mask0_1463_43481)">
<path d="M0.325623 18.6702C0.130249 18.017 0 17.4942 0 17.0371C0 15.9268 0.651246 15.4041 1.88862 15.3389H8.79181C9.96406 15.3389 11.0061 15.6 11.9178 16.188C12.8295 16.7758 13.4808 17.5597 13.8064 18.6047L19.9281 38.658L25.9196 18.6047C26.5708 16.4494 28.0035 15.3389 30.1526 15.3389H36.7304C38.8795 15.3389 40.312 16.4494 40.9634 18.6047L46.9549 38.658L53.0766 18.6047C53.4023 17.5597 54.0533 16.7758 54.9652 16.188C55.8769 15.6 56.919 15.3389 58.0912 15.3389H64.9944C66.2316 15.3389 66.8178 15.9268 66.883 17.0371C66.883 17.4942 66.7526 18.017 66.5573 18.6702L55.2255 52.9628C54.9 54.0079 54.2488 54.7918 53.3369 55.3795C52.4252 55.9675 51.5135 56.2287 50.4716 56.2287H45.2615C44.2196 56.2287 43.3079 55.9021 42.3962 55.3143C41.4842 54.7263 40.8982 53.9424 40.5725 52.9628L33.4088 30.7542L26.2451 52.9628C25.9196 53.9424 25.3334 54.7263 24.4217 55.3143C23.5099 55.9021 22.5331 56.2287 21.5562 56.2287H16.3463C15.3043 56.2287 14.3925 55.9675 13.4808 55.3795C12.569 54.7918 11.9829 54.0079 11.5922 52.9628L0.325623 18.6702Z" fill="black"/>
<path d="M72.2885 53.9424V17.6251C72.2885 16.9717 72.4841 16.3839 72.9399 15.9921C73.3958 15.6 73.9168 15.3389 74.568 15.3389H82.904C83.5551 15.3389 84.1412 15.5348 84.532 15.9921C84.9229 16.4494 85.1832 16.9717 85.1832 17.6251V53.9424C85.1832 54.5956 84.9879 55.1836 84.532 55.5755C84.0762 55.9675 83.5551 56.2287 82.904 56.2287H74.568C73.9168 56.2287 73.3306 56.0328 72.9399 55.5755C72.4841 55.1836 72.2885 54.5956 72.2885 53.9424Z" fill="black"/>
<path d="M108.824 56.2287C103.679 56.2287 99.3153 54.3997 95.8636 50.742C92.4121 47.0841 90.6537 42.5769 90.6537 35.7838C90.6537 28.9905 92.4771 24.4182 96.059 20.8257C99.6408 17.1678 104.525 15.3389 110.582 15.3389C113.708 15.3389 117.29 15.9921 121.327 17.2331V4.36514C121.327 3.71193 121.523 3.12416 121.979 2.73211C122.434 2.27502 122.955 2.0791 123.607 2.0791H131.877C132.529 2.0791 133.115 2.27502 133.506 2.73211C133.962 3.1894 134.157 3.71193 134.157 5.86749V54.0079C134.157 54.7263 133.962 55.1836 133.506 55.6409C133.05 56.0982 132.529 56.2939 131.877 56.2939H124.714C124.063 56.2939 123.476 56.0982 123.086 55.6409C122.695 55.1836 122.434 54.6609 122.434 54.0079V52.1135C118.527 54.7918 113.968 56.2287 108.824 56.2287ZM105.958 27.227C104.525 29.1214 103.809 31.5381 103.809 35.7838C103.809 40.0294 104.46 42.3811 105.828 44.3406C107.195 46.3 109.149 47.2146 111.884 47.2146C114.554 47.2146 117.68 46.1043 121.262 43.8833V25.8551C118.071 24.8755 115.401 24.353 113.187 24.353C109.8 24.353 107.391 25.3326 105.958 27.227Z" fill="black"/>
<path d="M145.358 50.742C141.516 47.0841 139.627 42.8382 139.627 35.9797C139.627 29.1866 141.516 24.4836 145.358 20.8257C149.2 17.1678 154.541 15.3389 161.313 15.3389C168.152 15.3389 173.427 17.1026 177.27 20.695C181.111 24.2877 183 29.3825 183 36.0449V38.2007C183 38.8537 182.805 39.4417 182.35 39.8335C181.894 40.2908 181.373 40.4867 180.722 40.4867H152.717C152.978 43.5569 154.867 47.7373 162.551 47.7373C165.872 47.7373 168.087 47.0187 169.324 45.5163C170.562 44.014 172.059 43.2955 173.818 43.2301H179.354C180.005 43.2301 180.59 43.4262 180.981 43.8833C181.437 44.3406 181.632 44.8631 181.632 45.5163C181.632 52.6362 174.86 56.2287 161.313 56.1634C154.476 56.2287 149.135 54.3997 145.358 50.742ZM152.652 32.6486H169.91C169.65 26.7697 166.784 23.8304 161.313 23.8304C155.844 23.8304 152.978 26.7697 152.652 32.6486Z" fill="black"/>
<path d="M20.1232 75.1713V76.347H13.4153V67.0718H19.9278V68.2475H14.7179V71.1215H19.3418V72.232H14.7179V75.2367H20.1232V75.1713Z" fill="#9C9C9C"/>
<path d="M35.2322 67.0718H39.1396C40.1165 67.0718 40.9632 67.2677 41.7446 67.6595C42.5261 68.0516 43.1121 68.5741 43.503 69.2926C43.8939 70.011 44.1542 70.7949 44.1542 71.7095C44.1542 72.6239 43.9589 73.4078 43.503 74.1262C43.1121 74.8447 42.5261 75.3672 41.7446 75.7593C40.9632 76.1511 40.1165 76.347 39.1396 76.347H35.2322V67.0718ZM39.0094 75.1713C39.7258 75.1713 40.4422 75.0406 40.9632 74.7142C41.5494 74.4528 41.9399 73.9955 42.2658 73.473C42.5913 72.9505 42.7217 72.3627 42.7217 71.6441C42.7217 70.9256 42.5913 70.3376 42.2658 69.8151C41.9399 69.2926 41.5494 68.9007 40.9632 68.5741C40.377 68.3128 39.7258 68.1168 39.0094 68.1168H36.5346V75.106H39.0094V75.1713Z" fill="#9C9C9C"/>
<path d="M59.9796 75.3677C59.2632 74.6491 58.9375 73.6692 58.9375 72.2976V67.0068H60.2401V72.2323C60.2401 74.1918 61.0866 75.237 62.8449 75.237C63.6916 75.237 64.3428 74.9757 64.7988 74.5184C65.2547 74.0613 65.4498 73.2774 65.4498 72.2976V67.0721H66.7524V72.363C66.7524 73.6692 66.4269 74.7145 65.7106 75.433C64.9942 76.1514 64.0825 76.478 62.8449 76.478C61.6077 76.4128 60.6308 76.0862 59.9796 75.3677Z" fill="#9C9C9C"/>
<path d="M84.0104 75.7594C83.2938 75.3675 82.7078 74.7798 82.2519 74.0611C81.861 73.3426 81.6005 72.5587 81.6005 71.6444C81.6005 70.73 81.7961 69.9461 82.2519 69.2274C82.6426 68.509 83.2288 67.921 84.0104 67.5292C84.7267 67.1373 85.5733 66.9414 86.485 66.9414C87.2014 66.9414 87.8525 67.0721 88.4388 67.3333C89.0248 67.5946 89.5458 67.921 89.9365 68.4438L89.09 69.2929C88.3736 68.5742 87.5271 68.1824 86.485 68.1824C85.7686 68.1824 85.1826 68.3131 84.5964 68.6397C84.0102 68.9663 83.6195 69.3581 83.2938 69.9461C82.9683 70.4686 82.8379 71.1218 82.8379 71.7751C82.8379 72.4283 82.9683 73.0815 83.2938 73.604C83.6195 74.1265 84.0102 74.5836 84.5964 74.9104C85.1826 75.2368 85.7686 75.3675 86.485 75.3675C87.5271 75.3675 88.3736 74.9757 89.09 74.2572L89.9365 75.1062C89.5458 75.5634 89.0248 75.9555 88.3736 76.2167C87.7876 76.478 87.1362 76.6087 86.4198 76.6087C85.5733 76.4126 84.7267 76.2167 84.0104 75.7594Z" fill="#9C9C9C"/>
<path d="M110.451 73.9958H105.567L104.525 76.2821H103.157L107.325 67.0068H108.628L112.796 76.2821H111.428L110.451 73.9958ZM109.996 72.9508L107.977 68.4437L105.958 72.9508H109.996Z" fill="#9C9C9C"/>
<path d="M128.686 75.7594C127.97 75.3675 127.383 74.7798 126.928 74.0611C126.537 73.3426 126.276 72.5587 126.276 71.6444C126.276 70.73 126.472 69.9461 126.928 69.2274C127.318 68.509 127.904 67.921 128.686 67.5292C129.402 67.1373 130.249 66.9414 131.161 66.9414C131.877 66.9414 132.528 67.0721 133.114 67.3333C133.701 67.5946 134.221 67.921 134.612 68.4438L133.766 69.2929C133.049 68.5742 132.203 68.1824 131.161 68.1824C130.444 68.1824 129.858 68.3131 129.272 68.6397C128.686 68.9663 128.295 69.3581 127.97 69.9461C127.644 70.4686 127.514 71.1218 127.514 71.7751C127.514 72.4283 127.644 73.0815 127.97 73.604C128.295 74.1265 128.686 74.5836 129.272 74.9104C129.793 75.2368 130.444 75.3675 131.161 75.3675C132.203 75.3675 133.049 74.9757 133.766 74.2572L134.612 75.1062C134.221 75.5634 133.701 75.9555 133.049 76.2167C132.463 76.478 131.812 76.6087 131.096 76.6087C130.249 76.4126 129.402 76.2167 128.686 75.7594ZM129.468 78.9602L129.728 78.307C129.988 78.4377 130.314 78.5029 130.64 78.5029C131.161 78.5029 131.356 78.307 131.356 77.9804C131.356 77.8497 131.291 77.719 131.161 77.5883C131.03 77.5231 130.835 77.4579 130.575 77.4579H130.249L130.575 76.1514H131.291L131.096 76.9351C131.486 77.0006 131.747 77.0658 131.942 77.2619C132.138 77.4578 132.268 77.719 132.268 77.9804C132.268 78.3722 132.138 78.6336 131.812 78.8295C131.486 79.0254 131.096 79.1561 130.64 79.1561C130.184 79.2866 129.793 79.1561 129.468 78.9602Z" fill="#9C9C9C"/>
<path d="M155.127 73.9958H150.243L149.201 76.2818H147.833L152.001 67.0064H153.304L157.471 76.2818H156.103L155.127 73.9958ZM153.108 66.092C152.978 66.0268 152.783 65.8961 152.522 65.7002C152.392 65.5695 152.262 65.5042 152.196 65.439C152.131 65.3736 152.001 65.3736 151.936 65.3736C151.741 65.3736 151.61 65.439 151.48 65.5695C151.35 65.7002 151.285 65.8961 151.285 66.1574H150.568C150.568 65.6349 150.698 65.2429 150.959 64.9817C151.219 64.7203 151.48 64.5244 151.871 64.5244C152.066 64.5244 152.262 64.5897 152.457 64.6549C152.587 64.7203 152.783 64.851 153.043 65.0469C153.173 65.1776 153.304 65.2429 153.369 65.3081C153.434 65.3736 153.564 65.3736 153.628 65.3736C153.825 65.3736 153.955 65.3081 154.085 65.1776C154.214 65.0469 154.281 64.851 154.281 64.5897H154.997C154.997 65.0469 154.867 65.439 154.606 65.7654C154.346 66.0268 154.085 66.2227 153.693 66.2227C153.434 66.2227 153.237 66.2227 153.108 66.092ZM154.671 72.9505L152.652 68.4437L150.633 72.9505H154.671Z" fill="#9C9C9C"/>
<path d="M173.361 75.7594C172.645 75.3675 172.058 74.7798 171.603 74.0611C171.147 73.3426 170.951 72.5587 170.951 71.6444C170.951 70.73 171.147 69.9461 171.603 69.2274C172.058 68.509 172.645 67.921 173.361 67.5292C174.077 67.1373 174.924 66.9414 175.901 66.9414C176.813 66.9414 177.66 67.1373 178.376 67.5292C179.092 67.921 179.677 68.509 180.133 69.2274C180.525 69.9461 180.786 70.73 180.786 71.6444C180.786 72.5587 180.59 73.3426 180.133 74.0611C179.744 74.7798 179.157 75.3675 178.376 75.7594C177.66 76.1514 176.813 76.3473 175.901 76.3473C174.924 76.4126 174.143 76.2167 173.361 75.7594ZM177.725 74.7798C178.246 74.4531 178.702 74.0611 179.027 73.4733C179.353 72.9508 179.483 72.2976 179.483 71.6444C179.483 70.9912 179.353 70.338 179.027 69.8154C178.702 69.2929 178.311 68.8356 177.725 68.509C177.204 68.1824 176.552 68.0517 175.901 68.0517C175.25 68.0517 174.598 68.1824 174.077 68.509C173.556 68.8356 173.101 69.2274 172.775 69.8154C172.449 70.338 172.319 70.9912 172.319 71.6444C172.319 72.2976 172.449 72.9508 172.775 73.4733C173.101 73.9959 173.491 74.4531 174.077 74.7798C174.598 75.1062 175.25 75.2368 175.901 75.2368C176.552 75.2368 177.138 75.1062 177.725 74.7798Z" fill="#9C9C9C"/>
<path d="M66.7526 1.55673C66.6875 1.62197 66.6223 1.68721 66.5573 1.75265C66.6223 1.75265 66.6875 1.75265 66.7526 1.94858C66.6875 1.94858 66.6875 1.94858 66.6223 1.94858C66.4921 1.94858 66.4921 1.94858 66.4269 2.07926C66.4269 2.07926 66.4269 2.1445 66.3618 2.1445C66.2316 2.07926 66.1664 2.01382 66.0363 2.07926C65.9711 2.1445 65.9711 2.07926 65.7758 1.94858C65.8409 1.88334 65.8409 1.88334 65.9059 1.75265C65.7758 1.75265 65.7108 1.75265 65.6454 1.81789C65.6454 1.88334 65.7108 1.88334 65.7108 1.94858V2.01382H65.6454C65.5804 1.94858 65.4501 1.81789 65.3849 1.75265C65.3849 1.75265 65.3199 1.81789 65.3199 1.88334C65.2547 1.94858 65.2547 1.94858 65.1895 1.81789C65.1246 1.68721 65.0594 1.81789 65.0594 1.81789C64.9942 2.01381 64.9942 2.27518 65.1895 2.34042C65.1895 2.66703 65.1246 2.73247 64.929 2.66703C64.929 2.60179 64.9942 2.53655 64.9942 2.53655C64.9942 2.53655 64.9942 2.53655 64.9942 2.47111C64.864 2.53655 64.7989 2.47111 64.6687 2.53655C64.6687 2.60179 64.6035 2.60179 64.6035 2.66703C64.6687 2.73247 64.6687 2.73247 64.7337 2.79771C64.7337 2.86316 64.6687 2.86316 64.6687 2.9284C64.6035 2.9284 64.6035 2.9284 64.5383 2.99363C64.4732 2.99363 64.4082 2.99363 64.4082 3.05908C64.2778 2.9284 64.4082 2.86316 64.4082 2.73247C64.343 2.60179 64.2778 2.73247 64.1477 2.73247C64.0825 2.60179 64.0825 2.47111 64.0173 2.27518C64.0825 2.20994 64.2126 2.1445 64.2778 2.20994C64.4732 2.34042 64.6035 2.27518 64.7989 2.20994C64.7989 2.1445 64.7989 2.07926 64.7989 2.01382C64.7337 2.01382 64.6687 2.01382 64.6035 2.01382C64.5383 2.01382 64.4732 1.94858 64.4082 1.94858H64.343C64.0825 1.94858 63.8872 2.01382 63.6266 2.01382C63.6266 2.07926 63.6266 2.1445 63.6918 2.1445C63.6918 2.20994 63.7568 2.20994 63.822 2.20994C63.822 2.20994 63.8872 2.27518 63.8872 2.34042C63.8872 2.47111 63.822 2.40587 63.7568 2.40587C63.6918 2.40587 63.6266 2.34042 63.6266 2.47111C63.6918 2.53655 63.6918 2.53655 63.7568 2.60179C63.6918 2.73247 63.5615 2.73247 63.4965 2.86316C63.3009 2.79771 63.0404 2.66703 62.8451 2.79771C62.7801 2.79771 62.7149 2.79771 62.7149 2.79771C62.6497 2.79771 62.5846 2.86316 62.5846 2.86316C62.5196 2.79771 62.5196 2.66703 62.4544 2.60179C62.4544 2.66703 62.4544 2.73247 62.4544 2.86316C62.3243 2.99363 62.2591 2.86316 62.1287 2.86316C61.9983 2.86316 61.9334 2.86316 61.738 2.79771C61.9334 2.9284 62.1939 2.9284 62.3892 2.9284C62.4544 2.9284 62.5196 2.9284 62.5196 2.9284C62.5196 2.9284 62.5846 2.9284 62.5846 2.99363C62.5846 2.99363 62.5846 3.05908 62.5846 3.12432C62.5196 3.18956 62.5196 3.255 62.5196 3.38569C62.5196 3.51616 62.5196 3.51616 62.7149 3.58161C62.7149 3.64685 62.7801 3.71229 62.7801 3.84277C62.7149 3.90822 62.6497 3.97346 62.5846 3.97346C62.5846 3.97346 62.6497 3.97345 62.7149 4.0389C62.7801 4.10414 62.7149 4.16938 62.6497 4.16938C62.5846 4.16938 62.5196 4.16938 62.3892 4.16938C62.3892 4.10414 62.3243 4.10414 62.3243 4.0389C62.1939 3.90821 62.1287 3.84277 61.9334 3.90822C61.8682 3.90822 61.738 3.97346 61.6729 3.97346C61.8032 4.10414 61.9334 3.97345 62.0637 4.10414C61.9983 4.16938 61.9983 4.16938 61.9334 4.23482C61.9334 4.30006 61.9334 4.3653 61.8682 4.43074H61.8032C61.8032 4.3653 61.8032 4.30006 61.738 4.23482C61.6729 4.16938 61.4775 4.30006 61.3474 4.16938C61.3474 4.10414 61.217 4.16938 61.217 4.16938C61.1518 4.16938 61.1518 4.10414 61.0868 4.10414C61.0868 4.16938 61.0868 4.23482 61.1518 4.30006C61.217 4.3653 61.2822 4.3653 61.3474 4.43074C61.2822 4.43074 61.217 4.43074 61.1518 4.43074C61.0868 4.43074 61.0217 4.49598 60.9565 4.49598C60.9565 4.56143 61.0217 4.62667 61.0217 4.75735C60.8915 4.82259 60.7611 4.82259 60.631 4.75735C60.631 4.69191 60.631 4.62667 60.5658 4.56143C60.5006 4.56143 60.4356 4.62667 60.3703 4.62667C60.3053 4.62667 60.1751 4.62667 60.11 4.62667C59.9146 4.62667 59.9146 4.62667 59.7843 4.43074C59.7843 4.49598 59.7193 4.62667 59.7193 4.69191C59.7843 4.75735 59.8494 4.82259 59.9144 4.75735C59.9796 4.69191 60.0448 4.69191 60.11 4.69191L60.1751 4.75735C60.1751 4.75735 60.1751 4.82259 60.11 4.82259C59.9146 4.75735 59.7193 4.88804 59.5237 4.88804C59.4588 4.88804 59.3284 4.88804 59.2634 4.88804C59.2634 4.75735 59.2634 4.62667 59.198 4.49598C59.1331 4.49598 59.0679 4.69191 59.0679 4.49598C59.0679 4.3653 59.0029 4.3653 58.9377 4.43074C58.9377 4.62667 59.0029 4.75735 59.0679 4.82259C59.0679 4.82259 59.0679 4.88804 59.0679 4.95327L59.0029 5.01851C58.9375 4.95327 58.8074 5.01851 58.7422 5.01851C58.547 5.08396 58.2863 5.08396 58.0912 5.08396C58.0258 5.08396 58.0258 5.08396 57.9608 5.08396C57.9608 5.1492 57.9608 5.1492 57.9608 5.1492C58.0258 5.27988 58.1562 5.1492 58.2214 5.21464C58.2863 5.27988 58.3515 5.34512 58.4817 5.27988C58.4817 5.21464 58.4167 5.1492 58.4167 5.08396C58.4167 4.95327 58.5471 4.95327 58.612 5.01851C58.6772 5.01851 58.6772 5.08396 58.7422 5.1492C58.8074 5.1492 58.8725 5.08396 58.9377 5.08396C59.0679 5.1492 59.198 5.1492 59.3284 5.01851H59.3936C59.5237 5.1492 59.5889 5.08396 59.7193 5.08396C59.7193 4.95327 59.7843 4.95327 59.8494 4.95327C59.9796 4.95327 60.11 4.95327 60.2401 4.95327H60.3053C60.3703 4.95327 60.4357 4.75735 60.5658 4.82259C60.631 4.88804 60.696 4.88804 60.7611 4.95327C60.8261 4.88804 60.8915 4.75735 61.0217 4.88804C61.0217 4.95327 61.0868 5.01851 61.0217 5.08396C60.9565 5.21464 61.0217 5.27988 61.0868 5.34512C60.8261 5.4758 60.5006 5.4758 60.2401 5.54125C60.2401 5.60649 60.2401 5.60649 60.3053 5.60649C60.3703 5.60649 60.4357 5.67173 60.5006 5.60649C60.5658 5.60649 60.5658 5.73717 60.5658 5.80241C60.631 5.73717 60.631 5.73717 60.696 5.73717C60.7611 5.60648 60.8915 5.60649 61.0217 5.67173C61.1518 5.80241 61.2822 5.73717 61.3474 5.67173C61.4775 5.67173 61.5427 5.80241 61.6079 5.93309C61.4123 5.99833 61.4123 5.99833 61.2822 6.19426C61.217 6.19426 61.2822 6.06378 61.217 5.99833H61.1518C61.0868 6.19425 60.8915 6.12902 60.8261 6.2597C60.8261 6.2597 60.7611 6.2597 60.696 6.19426C60.631 6.12902 60.696 6.12902 60.696 6.06378V5.99833C60.631 5.99833 60.5658 5.99833 60.4357 5.99833C60.5658 5.99833 60.5658 6.06378 60.631 6.12901C60.5658 6.12901 60.5006 6.12902 60.3703 6.19426C60.3053 6.19426 60.2401 6.32494 60.11 6.2597C60.0448 6.2597 59.9796 6.2597 59.8494 6.2597C59.8494 6.12902 59.8494 6.06378 59.8494 5.99833H59.7843C59.6539 5.86765 59.7193 5.73717 59.7193 5.54125C59.6539 5.4758 59.5889 5.4758 59.5237 5.60649C59.4588 5.67173 59.5237 5.80241 59.5889 5.86765C59.5889 5.86765 59.5889 5.93309 59.6539 5.99833C59.4588 6.06378 59.2634 6.06378 59.1331 6.12901C59.0679 6.12901 58.9375 6.12902 59.0029 6.2597L58.9377 6.32494C58.8074 6.39038 58.7422 6.39038 58.612 6.45562C58.612 6.52086 58.6772 6.58631 58.6772 6.52086C58.7422 6.45562 58.8725 6.45562 58.9377 6.52086C59.0679 6.52086 59.2634 6.58631 59.3936 6.52086C59.4588 6.45562 59.5237 6.52086 59.6539 6.52086C59.6539 6.58631 59.6539 6.65155 59.5889 6.71699C59.5237 6.71699 59.5237 6.71699 59.4588 6.71699C59.1331 6.71699 58.8725 6.71699 58.547 6.84747C58.4167 6.91291 58.2214 6.97815 58.0912 6.84747C57.9608 6.78223 57.9608 6.84747 57.9608 6.97815C58.0258 6.97815 58.0912 7.0436 58.1562 6.97815C58.2214 6.97815 58.2214 6.97815 58.2863 7.10883C58.2214 7.10883 58.2214 7.10884 58.1562 7.17407C58.0912 7.17407 58.0258 7.23952 58.0258 7.30476C58.0258 7.43544 57.8957 7.50068 57.8307 7.50068C57.6351 7.50068 57.4398 7.63136 57.2445 7.50068C57.1793 7.50068 57.1141 7.50068 57.0491 7.56612C56.9839 7.56612 56.919 7.63137 56.8536 7.63137C57.0491 7.82729 57.1793 7.82729 57.3748 7.76205C57.4398 7.6966 57.505 7.6966 57.57 7.63137C57.7003 7.56613 57.8957 7.63137 57.9608 7.82729C58.0912 7.76205 58.1562 7.6966 58.0912 7.50068C58.0912 7.43544 58.0912 7.37 58.1562 7.30476C58.2214 7.23952 58.2214 7.30476 58.2863 7.37C58.3515 7.43544 58.4167 7.43544 58.4167 7.37C58.4817 7.30476 58.547 7.30476 58.547 7.43544C58.4817 7.56613 58.3515 7.43544 58.2214 7.50068C58.2214 7.56612 58.2863 7.63136 58.2863 7.6966C58.2214 7.6966 58.2214 7.6966 58.2214 7.76205C58.1562 7.82729 58.1562 7.89273 58.0912 7.89273C58.0258 7.89273 58.0258 7.95797 57.9608 7.95797C57.9608 8.02321 57.9608 8.08865 57.9608 8.15389C57.8305 8.21913 57.7003 8.28458 57.57 8.34982C57.6351 8.41526 57.8305 8.41526 57.9608 8.41526C58.0912 8.41526 58.2213 8.34981 58.3515 8.4805C58.3515 8.61118 58.2863 8.54574 58.2863 8.54574C58.2214 8.54574 58.0912 8.54574 58.0258 8.54574C57.9608 8.54574 57.8957 8.54574 57.7653 8.61118C57.6351 8.74187 57.4398 8.67642 57.3094 8.67642C57.2445 8.67642 57.2445 8.67642 57.1793 8.67642C57.1141 8.80711 56.9839 8.74187 56.8536 8.74187C56.3328 8.80711 55.8117 8.87235 55.3559 9.00303C55.2907 9.00303 55.2255 9.00303 55.1605 9.00303C55.1605 9.13371 55.2255 9.06848 55.2255 9.06848C55.3559 9.06848 55.5512 9.00303 55.6814 9.06848H55.7465C56.0071 8.93779 56.2676 8.87234 56.5281 8.93779C56.5931 8.93779 56.6582 8.93779 56.7234 9.00303C56.6582 9.00303 56.5281 9.06848 56.4629 9.06848C56.6582 9.06848 56.9188 9.00303 57.1141 9.00303C57.1793 9.00303 57.2445 9.06847 57.3748 9.13371C57.4398 9.13371 57.4398 9.06848 57.505 9.00303C57.57 9.00303 57.6351 8.93779 57.7003 9.06848C57.7653 9.13371 57.8305 9.13371 57.8957 9.13371C58.0258 9.13371 58.0912 9.19895 58.2214 9.06848C58.2863 9.00303 58.3515 9.06847 58.3515 9.13371C58.3515 9.19895 58.3515 9.2644 58.2863 9.32963H58.2214C57.8305 9.19895 57.4398 9.52556 57.0491 9.52556C57.2445 9.52556 57.4398 9.52556 57.6351 9.52556C57.6351 9.591 57.7003 9.65624 57.7003 9.72148C57.7003 9.78693 57.6351 9.85216 57.57 9.85216C57.505 9.85216 57.3748 9.85217 57.2445 9.98285C57.4398 9.98285 57.6351 9.91761 57.8307 9.91761C58.0258 9.91761 58.2214 9.85216 58.4817 9.85216C58.6772 9.85216 58.8725 9.78693 59.0679 9.78693C59.0679 9.85217 59.0679 9.91761 59.0679 9.98285C59.1331 10.0481 59.1331 9.98285 59.198 9.91761C59.2634 9.72148 59.4588 9.65624 59.5889 9.72148C59.5889 9.72148 59.5889 9.78692 59.6539 9.85216C59.9796 9.65624 60.2401 9.91761 60.5658 9.91761C60.631 9.91761 60.631 10.0481 60.7611 10.1135C60.631 10.0481 60.5658 10.0481 60.5006 10.0481C60.3053 9.91761 60.11 9.91761 59.9144 10.0481C59.8494 10.1135 59.7193 10.1135 59.7843 10.3095C59.7843 10.3747 59.7843 10.4401 59.7193 10.4401C59.6539 10.4401 59.6539 10.3747 59.6539 10.3095C59.6539 10.3095 59.6539 10.2442 59.6539 10.1788C59.5889 10.1788 59.5237 10.1788 59.4588 10.1788C59.5237 10.2442 59.5237 10.3095 59.5237 10.3747C59.5237 10.3747 59.5237 10.4401 59.4588 10.4401C59.2634 10.5054 59.0679 10.5708 58.8725 10.5708C58.7422 10.5708 58.612 10.5708 58.4817 10.7013C58.8725 10.7013 59.198 10.6361 59.5889 10.6361C59.8494 10.6361 60.1751 10.5708 60.4357 10.5708C60.631 10.5708 60.8261 10.5708 61.0217 10.4401C61.0868 10.4401 61.0868 10.4401 61.1518 10.4401C61.3474 10.5054 61.5427 10.4401 61.738 10.4401C61.8032 10.4401 61.9334 10.4401 62.0637 10.4401C62.1939 10.5054 62.3892 10.5054 62.5196 10.3747C62.5846 10.3095 62.7149 10.2442 62.7801 10.3095C62.8451 10.3095 62.9103 10.3095 63.0404 10.3095C63.0404 10.4401 63.1056 10.5054 63.1056 10.6361C63.1056 10.5708 63.1708 10.5708 63.1708 10.5708C63.1708 10.5054 63.236 10.4401 63.3009 10.5054C63.4313 10.6361 63.4965 10.5708 63.6266 10.3747C63.6918 10.2442 63.8872 10.2442 64.0173 10.2442C64.0173 10.3095 63.9523 10.3095 63.9523 10.3747H63.8872C63.8872 10.3747 63.8872 10.3747 63.8872 10.4401C63.9523 10.4401 63.9523 10.4401 64.0173 10.4401C64.1477 10.5054 64.2126 10.5708 64.343 10.5708C64.4082 10.5708 64.4732 10.5054 64.5383 10.5708C64.5383 10.5708 64.5383 10.5708 64.6035 10.5708H64.5383C64.6035 10.4401 64.6687 10.3747 64.6687 10.2442C64.7989 10.1788 64.929 10.1135 64.9942 10.3095C64.929 10.3095 64.864 10.3095 64.7989 10.3095C64.864 10.3747 64.864 10.3747 64.864 10.3747C64.9942 10.3747 65.1246 10.3747 65.2547 10.3747C65.2547 10.4401 65.3199 10.4401 65.3849 10.4401C65.4501 10.4401 65.5804 10.5054 65.6454 10.5708C65.5804 10.6361 65.5152 10.7013 65.4501 10.7013C64.9942 10.7667 64.6035 10.8974 64.1477 10.8974C64.1477 10.8974 64.1477 10.8972 64.0825 10.9627C64.0825 11.0279 64.1477 11.0279 64.1477 11.0279C64.343 11.0279 64.6035 10.9627 64.7989 10.9627C64.929 10.9627 65.0594 10.8974 65.2547 10.8974C65.5152 10.832 65.7758 10.832 66.0363 10.832C66.2316 10.832 66.4921 10.7667 66.6875 10.7667C66.8176 10.7013 66.948 10.7013 67.0781 10.7013C67.1433 10.7013 67.2085 10.7013 67.2735 10.7013C67.4038 10.7013 67.534 10.7013 67.6644 10.6361C67.7295 10.6361 67.7945 10.6361 67.8597 10.6361C67.9899 10.7013 68.0552 10.7013 68.1854 10.6361C68.1854 10.7013 68.2504 10.7667 68.3155 10.7667C68.4457 10.7667 68.5761 10.7667 68.6412 10.832C68.7062 10.7667 68.7062 10.5708 68.9018 10.6361C68.9669 10.6361 68.9018 10.7013 68.9018 10.7667C69.1621 10.8974 69.2924 10.6361 69.4878 10.6361C69.6179 10.7667 69.8135 10.7667 70.0088 10.7667C70.2693 10.7013 70.4647 10.7667 70.7252 10.7013C70.7904 10.7013 70.8556 10.7013 70.9205 10.7667C70.9205 10.832 70.8555 10.832 70.7904 10.832C70.66 10.832 70.595 10.8974 70.5298 11.0279C70.595 11.0934 70.66 11.0279 70.7252 11.0279C70.7904 11.0279 70.8556 11.0934 70.9205 11.1586L70.9857 11.0934L71.0509 11.0279H71.1161C71.3764 11.2238 71.6369 11.2238 71.9626 11.1586C72.0278 11.1586 72.0928 11.1586 72.1579 11.1586C72.2231 11.1586 72.3533 11.2238 72.4184 11.2238C72.679 11.2238 72.9395 11.2238 73.0696 10.9627C73.2 11.0934 73.3953 11.1586 73.5907 11.1586C73.9164 11.1586 74.307 11.1586 74.6327 11.0934C75.0886 11.0934 75.6094 11.0934 76.0653 11.0934C76.1305 11.0934 76.1957 11.0934 76.2608 11.0934C76.3912 11.1586 76.4562 11.0934 76.5863 11.0934C76.7167 11.0934 76.8471 11.0279 77.0422 11.0279C77.1074 11.0279 77.1074 11.0279 77.1725 11.0279C77.1074 11.1586 77.0422 11.0934 76.9772 11.0934V11.1586C77.1074 11.1586 77.2375 11.2238 77.3679 11.2238C77.498 11.2238 77.5634 11.2238 77.6936 11.0934C77.6284 11.0934 77.5634 11.0279 77.498 11.0279C77.6936 10.9627 77.7588 10.9627 78.0843 10.9627C78.0843 11.0279 78.0193 11.0279 78.0193 11.0279C77.9539 11.0279 77.9539 11.0279 77.9539 11.0279C77.8889 11.0279 77.8889 11.0934 77.8889 11.0934C77.9539 11.0934 77.9539 11.1586 77.9539 11.1586C78.1494 11.0934 78.3448 11.1586 78.5401 11.0934C78.996 11.0279 79.4518 11.0934 79.9079 11.0279C80.4287 11.0279 80.9497 10.9627 81.536 10.9627C81.9266 10.9627 82.3173 10.9627 82.7082 10.8974C83.0337 10.8974 83.3594 10.8972 83.6851 10.832C83.7501 10.832 83.8152 10.832 83.8804 10.7667C83.9454 10.7013 84.0106 10.7013 84.1409 10.7013C84.2059 10.7013 84.2711 10.7013 84.3363 10.7013C84.4012 10.7013 84.4664 10.7013 84.5316 10.6361C84.5968 10.5708 84.727 10.5054 84.8573 10.4401C84.8573 10.4401 84.7921 10.3095 84.8573 10.2442C84.9223 10.1788 84.8573 10.1135 84.9223 10.0481C84.9875 9.98285 85.0526 9.91761 85.0526 9.85216C85.0526 9.72148 84.9875 9.65624 84.9223 9.591C84.7921 9.46032 84.7269 9.2644 84.7269 9.06848C84.7269 8.93779 84.6618 8.87235 84.6618 8.80711C84.7269 8.61119 84.7269 8.34982 84.7269 8.15389C84.6618 8.08865 84.5968 8.08866 84.5968 8.02321C84.7921 7.82729 84.8573 7.63136 84.9875 7.37C85.1176 7.10884 85.183 6.84747 85.3132 6.65155C85.3781 6.58631 85.3781 6.52086 85.3132 6.45562C85.248 6.39038 85.248 6.2597 85.183 6.19426C85.183 6.12902 85.0526 6.06378 84.9875 5.93309C84.9223 5.80241 84.9875 5.73717 85.0526 5.60649C85.1176 5.4758 85.183 5.34512 85.3132 5.21464C85.4433 5.08396 85.4433 4.82259 85.5735 4.75735C85.5735 4.75735 85.5735 4.69191 85.5735 4.62667C85.5735 4.30006 85.5085 4.0389 85.3781 3.71229C85.3781 3.64685 85.3132 3.58161 85.248 3.51616C85.183 3.45093 85.1176 3.32024 85.0526 3.255C84.9223 3.05908 84.7921 2.99363 84.6618 3.05908L84.5968 3.12432C84.5316 3.18956 84.4664 3.12432 84.4012 2.99363C84.4012 2.9284 84.3363 2.86316 84.3363 2.86316C84.1409 2.73247 84.0106 2.53655 83.8152 2.34042L83.7501 2.27518C83.4895 2.20994 83.2942 1.94858 83.0337 1.81789C82.9035 1.62197 82.7082 1.55673 82.5126 1.55673C82.3825 1.42605 82.1872 1.55673 82.0568 1.36081C82.0568 1.29536 81.9918 1.36081 81.9266 1.36081C81.8615 1.36081 81.7965 1.36081 81.7313 1.36081C81.6009 1.29536 81.536 1.29536 81.4056 1.36081C81.3404 1.36081 81.2754 1.36081 81.1451 1.36081C81.0801 1.36081 81.0801 1.36081 81.0149 1.36081C81.1451 1.49129 81.2754 1.36081 81.3404 1.49129C81.3404 1.55673 81.3404 1.62197 81.2754 1.62197C81.2103 1.68721 81.1451 1.68721 81.1451 1.68721C81.0801 1.62197 80.9497 1.62197 80.8846 1.68721C80.8846 1.68721 80.8196 1.68721 80.7544 1.68721C80.6892 1.55673 80.5591 1.55673 80.4939 1.62197C80.3637 1.68721 80.2334 1.62197 80.1032 1.68721L80.038 1.62197C80.038 1.55673 80.038 1.49129 80.1032 1.49129C80.2334 1.49129 80.2983 1.42605 80.4287 1.49129C80.5591 1.49129 80.6242 1.49129 80.6892 1.49129V1.42605L80.6243 1.36081C80.1032 1.29536 79.5822 1.29536 79.0611 1.23013C79.0611 1.36081 79.0611 1.36081 79.1261 1.36081L79.1915 1.29536C79.2565 1.29536 79.2565 1.29536 79.2565 1.36081C79.2565 1.42605 79.2565 1.49129 79.1915 1.49129C79.1915 1.49129 79.1261 1.49129 79.0611 1.49129C78.8006 1.49129 78.8006 1.49129 78.6053 1.55673C78.5401 1.42605 78.5401 1.23013 78.41 1.09944C78.3448 1.0342 78.2796 1.0342 78.2144 1.0342C78.0843 1.09944 77.8889 1.09944 77.7588 0.968757C77.5634 0.968757 77.3679 0.838073 77.1725 0.968757C77.0422 1.0342 76.9772 0.968757 76.912 0.903519C76.912 0.903519 76.847 0.903519 76.7817 0.903519C76.7817 0.968757 76.847 1.0342 76.847 1.0342C76.7167 1.09944 76.6515 1.09944 76.5863 0.968757C76.5213 0.838073 76.3912 0.838073 76.3258 0.838073C76.1957 0.838073 76.1305 0.903518 76.0003 0.838073C75.9351 0.772834 75.87 0.903519 75.87 0.968757C75.87 1.0342 75.87 1.09944 75.9351 1.16468C75.9351 1.23013 75.9351 1.23013 75.87 1.36081C75.805 1.29536 75.7398 1.23013 75.7398 1.23013C75.6748 1.23013 75.6748 1.29536 75.6748 1.36081C75.6748 1.49129 75.6094 1.55673 75.5445 1.55673C75.4141 1.55673 75.219 1.49129 75.0886 1.49129C75.0234 1.49129 75.0234 1.42605 74.9582 1.42605C74.8931 1.42605 74.8931 1.36081 74.8931 1.36081C74.8931 1.23013 74.9582 1.23013 74.9582 1.23013C75.0234 1.16468 75.0234 1.09944 75.0886 1.09944C75.0886 1.09944 75.0886 1.0342 75.0886 0.968757H75.0234L74.9582 1.0342C74.9582 1.16468 74.9582 1.23013 74.8931 1.23013C74.8281 1.23013 74.7629 1.23013 74.6977 1.0342C74.6977 1.0342 74.6977 0.968757 74.6327 0.968757C74.5024 0.968757 74.3722 0.968757 74.3071 0.968757C74.1769 0.903519 74.1769 1.23013 74.0465 1.16468C74.0465 1.09944 74.0465 1.09944 74.0465 1.0342H73.9814C73.9814 1.23013 73.9164 1.29536 73.786 1.36081C73.6559 1.23013 73.5907 0.968757 73.3953 0.968757C73.3953 1.0342 73.4605 1.09944 73.4605 1.16468C73.4605 1.23013 73.3953 1.29536 73.3953 1.36081C73.4605 1.36081 73.4605 1.36081 73.4605 1.42605C73.5255 1.49129 73.5255 1.55673 73.4605 1.62197C73.3953 1.68721 73.265 1.62197 73.265 1.55673C73.265 1.42605 73.2 1.36081 73.2 1.23013C73.1348 1.23013 73.0696 1.23013 73.0696 1.29536C73.0047 1.42605 72.9395 1.55673 72.8091 1.55673C72.7442 1.55673 72.7441 1.62197 72.679 1.68721C72.5486 1.62197 72.4836 1.42605 72.4836 1.23013C72.3533 1.23013 72.2231 1.23013 72.0928 1.29536C72.0928 1.42605 72.0928 1.42605 72.1579 1.42605C72.2231 1.42605 72.2883 1.42605 72.3533 1.42605C72.3533 1.55673 72.2231 1.62197 72.2231 1.75265C72.1579 1.68721 72.0278 1.62197 71.9626 1.62197C71.8974 1.62197 71.7673 1.68721 71.7021 1.68721C71.5719 1.68721 71.4416 1.62197 71.3764 1.62197C71.3764 1.49129 71.5067 1.55673 71.5067 1.36081C71.4416 1.36081 71.3114 1.36081 71.2462 1.42605C71.2462 1.55673 71.181 1.62197 71.181 1.68721C70.9857 1.62197 70.8555 1.62197 70.7252 1.68721H70.66C70.595 1.68721 70.595 1.62197 70.595 1.55673C70.595 1.49129 70.595 1.42605 70.66 1.42605C70.66 1.42605 70.7252 1.42605 70.7904 1.36081C70.66 1.36081 70.595 1.36081 70.5298 1.36081C70.4647 1.36081 70.4647 1.42605 70.4647 1.42605C70.5298 1.62197 70.3343 1.68721 70.2693 1.75265C70.1392 1.88334 70.074 1.81789 70.0088 1.49129C69.8785 1.42605 69.7483 1.49129 69.6833 1.42605C69.553 1.36081 69.4878 1.36081 69.4228 1.36081C69.3576 1.36081 69.2275 1.42605 69.1621 1.42605C69.0971 1.49129 69.0319 1.42605 68.967 1.49129C68.8366 1.42605 68.7716 1.62197 68.6412 1.62197C68.6412 1.68721 68.7062 1.75265 68.7062 1.88334C68.6413 1.94858 68.5111 1.94858 68.4457 2.01382C68.3807 2.01382 68.3155 1.94858 68.3155 1.88334C68.3155 1.81789 68.3155 1.75265 68.3155 1.68721C68.0552 1.68721 67.7945 1.68721 67.534 1.81789C67.4038 1.81789 67.3389 1.88334 67.2085 1.88334C66.948 1.68721 66.883 1.68721 66.7526 1.55673ZM69.4878 1.62197C69.4228 1.62197 69.3576 1.68721 69.2924 1.68721C69.3576 1.42605 69.4228 1.42605 69.6833 1.62197C69.6179 1.62197 69.553 1.55673 69.4878 1.62197ZM68.7062 1.68721C68.7062 1.62197 68.7716 1.55673 68.7716 1.55673C68.7716 1.49129 68.8366 1.49129 68.7716 1.42605C68.7716 1.42605 68.7714 1.49129 68.8366 1.49129C68.9018 1.55673 68.9018 1.55673 68.9018 1.68721C68.8366 1.68721 68.7716 1.75265 68.7062 1.68721ZM74.3722 1.16468C74.3722 1.16468 74.3722 1.09944 74.3071 1.09944C74.3071 1.09944 74.3071 1.0342 74.3722 1.0342C74.3722 1.09944 74.4372 1.09944 74.3722 1.16468ZM79.9729 1.49129C79.9079 1.49129 79.9079 1.49129 79.9729 1.49129V1.49129ZM73.9814 10.832C73.9164 10.832 73.9164 10.832 73.9814 10.832V10.832ZM73.5907 10.832C73.5255 10.832 73.5255 10.832 73.5907 10.832V10.832ZM72.8091 10.8974C72.8743 10.8974 72.8743 10.9627 72.8091 10.8974C72.8091 10.9627 72.8091 10.9627 72.8091 10.8974ZM71.7021 10.7013C71.8322 10.5708 71.8322 10.5708 71.9626 10.6361C71.8974 10.7013 71.8322 10.7667 71.7021 10.7013ZM71.3764 10.7013C71.3114 10.7013 71.3114 10.7013 71.2462 10.7013C71.3114 10.6361 71.3764 10.6361 71.3764 10.7013ZM64.1477 10.2442C64.2126 10.2442 64.2126 10.3095 64.1477 10.2442C64.1477 10.3095 64.2126 10.3095 64.1477 10.2442ZM63.3009 10.3095C63.3661 10.3747 63.3009 10.3747 63.3009 10.3747C63.3009 10.3747 63.3009 10.3747 63.3009 10.3095ZM62.1939 9.72148C62.1287 9.78693 62.1287 9.72148 62.1287 9.72148C62.1287 9.72148 62.1287 9.65624 62.1939 9.72148ZM63.1056 9.78693C63.0404 9.78693 63.0404 9.78692 62.9754 9.85216C62.9103 9.91761 62.8451 9.85216 62.7149 9.72148C62.9103 9.72148 62.9754 9.78693 63.1056 9.78693ZM67.0132 9.91761C67.0132 9.98285 67.0132 9.98285 67.0132 9.91761V9.91761ZM68.4457 10.4401C68.5111 10.3747 68.6413 10.3747 68.7062 10.3747C68.8366 10.3747 68.9669 10.3747 69.0971 10.3095C69.2275 10.3095 69.2924 10.2442 69.3576 10.2442H69.4228C69.4878 10.2442 69.553 10.2442 69.6179 10.3095C69.4228 10.3747 69.2924 10.3747 69.1621 10.4401C69.0971 10.4401 69.0971 10.4401 69.0319 10.4401C68.8366 10.3747 68.6412 10.4401 68.4457 10.4401ZM70.3343 9.78693C70.3997 9.72148 70.3997 9.72148 70.4647 9.78693C70.3997 9.78693 70.3997 9.78693 70.3343 9.78693ZM71.3764 9.72148C71.3114 9.72148 71.2462 9.72148 71.2462 9.72148C71.3114 9.65624 71.3114 9.65624 71.3764 9.72148ZM69.1621 10.0481C69.0971 10.0481 69.0971 10.0481 69.1621 10.0481V10.0481ZM67.7295 9.91761C67.7947 9.85216 67.7947 9.91761 67.7295 9.91761C67.7947 9.85216 67.7945 9.85216 67.7945 9.91761C67.7945 9.91761 67.7947 9.91761 67.7295 9.91761C67.7947 9.91761 67.7947 9.91761 67.7295 9.91761ZM65.0594 9.72148C65.0594 9.72148 65.1246 9.72148 65.1895 9.72148C65.1246 9.78693 65.1246 9.78693 65.0594 9.72148C65.0594 9.78693 65.0594 9.78693 65.0594 9.72148ZM63.5615 9.72148L63.6266 9.65624C63.6918 9.65624 63.6918 9.72148 63.6918 9.85216C63.6266 9.78692 63.5615 9.85216 63.5615 9.72148ZM63.3009 9.72148C63.236 9.78693 63.236 9.78693 63.3009 9.72148C63.236 9.72148 63.236 9.72148 63.3009 9.72148ZM64.2126 9.46032C64.2778 9.52556 64.343 9.52556 64.4732 9.591C64.343 9.65624 64.343 9.65624 64.2126 9.46032ZM62.3243 10.1135C62.2591 10.0481 62.2591 10.0481 62.2591 9.98285C62.2591 9.91761 62.2591 9.91761 62.3243 9.85216H62.3892C62.3243 9.98285 62.3243 9.98285 62.3243 10.1135ZM65.8409 10.5054L65.7758 10.5708C65.7108 10.5708 65.7108 10.5054 65.6454 10.5054C65.6454 10.4401 65.7108 10.4401 65.7108 10.3747C65.8409 10.3747 65.9059 10.4401 65.8409 10.5054ZM66.1664 10.3747C66.1012 10.3747 66.1012 10.3747 66.1012 10.3747C66.1664 10.3747 66.1664 10.3747 66.1664 10.3747ZM66.1664 10.3747C66.1664 10.4401 66.1664 10.4401 66.2316 10.4401C66.2316 10.4401 66.2316 10.4401 66.1664 10.4401C66.1664 10.4401 66.1664 10.4401 66.1664 10.3747ZM68.1854 10.0481C68.3156 10.0481 68.4457 10.0481 68.5761 10.0481C68.6412 10.0481 68.6413 10.0481 68.7062 10.0481C68.4457 10.2442 68.4457 10.2442 68.1854 10.1135C68.1854 10.1135 68.1854 10.1135 68.1854 10.0481ZM65.0594 10.1135L65.1246 10.1788C65.0594 10.1788 65.0594 10.1788 64.9942 10.1788C64.9942 10.1788 64.9942 10.1788 65.0594 10.1135ZM60.3053 10.2442C60.3703 10.2442 60.3703 10.2442 60.3053 10.2442V10.2442ZM60.11 10.3747C60.0448 10.3095 59.9796 10.3095 59.9796 10.2442C59.9796 10.2442 59.9796 10.1788 59.9796 10.1135C60.11 10.1788 60.11 10.1788 60.11 10.3747ZM61.0217 9.78693L61.0868 9.85216L61.0217 9.91761C61.0217 9.85216 60.9565 9.85217 60.9565 9.78693C60.9565 9.78693 61.0217 9.72148 61.0217 9.78693ZM61.8682 9.72148C61.8032 9.78693 61.8032 9.85217 61.8032 9.98285C61.8682 10.0481 61.9983 9.91761 62.0637 10.1135C61.8682 10.1135 61.6729 9.98285 61.6079 10.3095C61.4123 10.1788 61.2822 10.3095 61.0868 10.1788L61.0217 10.2442C61.0217 10.2442 60.9565 10.2442 60.9565 10.3095C60.9565 10.1135 60.9565 10.1135 61.0217 10.1135C61.1518 10.1135 61.217 10.1135 61.3474 10.0481C61.4123 10.0481 61.4123 9.98285 61.4775 9.98285C61.4123 9.91761 61.4123 9.98285 61.3474 9.98285C61.2822 9.98285 61.217 9.91761 61.217 9.78693C61.4123 9.65624 61.6079 9.591 61.8682 9.72148ZM58.0258 9.72148L57.9608 9.78693C57.8957 9.85217 57.8307 9.78693 57.8307 9.72148C57.8307 9.72148 57.8305 9.65624 57.8957 9.65624C57.9608 9.65624 57.9608 9.65624 58.0258 9.72148ZM58.1562 9.591C58.1562 9.65624 58.2214 9.65624 58.1562 9.591V9.591ZM58.7422 9.52556C58.8074 9.52556 58.8074 9.591 58.8074 9.65624C58.7422 9.72148 58.6772 9.78693 58.612 9.78693C58.612 9.591 58.612 9.591 58.612 9.591C58.612 9.52556 58.6772 9.52556 58.7422 9.52556ZM59.0029 9.46032C59.0679 9.52556 59.0029 9.52556 59.0029 9.591C58.9375 9.591 58.9375 9.52556 59.0029 9.46032C58.9375 9.52556 58.9375 9.46032 59.0029 9.46032ZM58.9377 9.13371C59.0029 9.13371 59.0029 9.13371 59.0679 9.13371C59.0679 9.13371 59.0679 9.13371 59.0679 9.19895C59.0029 9.19895 58.9377 9.13371 58.9377 9.13371ZM59.0029 8.80711C58.9375 8.80711 58.9375 8.80711 59.0029 8.80711C58.9375 8.74187 58.9375 8.74187 59.0029 8.80711ZM59.5889 8.80711C59.5889 8.74187 59.5889 8.74187 59.5889 8.74187C59.6539 8.74187 59.6539 8.74187 59.5889 8.80711ZM57.7653 8.87234C57.8305 8.87234 57.8957 8.87234 57.8957 8.93779C57.8957 8.93779 57.8957 8.93779 57.8957 9.00303C57.8305 9.06848 57.7653 9.00303 57.7653 9.00303C57.7653 8.93779 57.7653 8.87234 57.7653 8.87234ZM60.2401 8.21913C60.2401 8.1539 60.2401 8.1539 60.2401 8.21913V8.21913ZM59.9796 8.28458C59.9796 8.21913 59.9796 8.21913 59.9796 8.28458V8.28458ZM59.3936 8.34982C59.3936 8.28458 59.3936 8.28458 59.3936 8.28458H59.4588V8.34982C59.4588 8.34982 59.4588 8.34982 59.3936 8.34982ZM58.8725 8.34982V8.41526C58.8725 8.41526 58.8725 8.4805 58.8074 8.4805C58.6772 8.4805 58.612 8.4805 58.4817 8.4805C58.4817 8.41526 58.4817 8.41526 58.4817 8.34982C58.612 8.28458 58.8074 8.28458 58.8725 8.34982ZM59.6539 7.63137C59.7193 7.6966 59.6539 7.6966 59.6539 7.6966C59.5889 7.6966 59.5889 7.6966 59.5237 7.6966V7.63137C59.5889 7.56613 59.6539 7.56613 59.6539 7.63137ZM59.8494 7.63137C59.9144 7.56613 59.9796 7.56613 60.0448 7.63137C59.9796 7.63137 59.9144 7.76205 59.8494 7.63137ZM58.8074 8.02321C58.8725 7.95797 58.8725 7.95797 58.8074 8.02321C58.8725 8.02321 58.8725 8.02321 58.8074 8.02321ZM58.2863 7.95797C58.2863 8.02321 58.2863 8.02321 58.2863 8.08866C58.2863 8.08866 58.2863 8.08866 58.2214 8.02321C58.2214 8.02321 58.2214 8.02321 58.2863 7.95797ZM58.4817 7.6966C58.5471 7.82729 58.5471 7.95797 58.612 8.08866C58.5471 8.08866 58.4817 8.08866 58.3515 8.08866C58.4167 7.95797 58.4167 7.82729 58.4817 7.6966ZM61.4123 6.78223C61.4123 6.71699 61.4123 6.71699 61.4123 6.71699C61.4775 6.71699 61.4775 6.71699 61.4123 6.78223C61.4775 6.78223 61.4775 6.71699 61.4123 6.78223ZM60.5006 6.78223C60.5658 6.78223 60.5658 6.78223 60.5658 6.78223L60.631 6.84747L60.5658 6.91291C60.5658 6.91291 60.5006 6.84747 60.5006 6.78223ZM58.9377 6.91291C59.0029 6.91291 59.0029 6.97815 58.9377 6.91291C58.9377 6.97815 58.9377 6.97815 58.9377 6.91291ZM64.0173 6.19426C63.9523 6.12902 63.9523 6.12902 64.0173 6.19426C63.9523 6.12902 64.0173 6.12901 64.0173 6.12901C64.0173 6.06378 64.0173 6.12902 64.0173 6.19426C64.0173 6.12902 64.0173 6.12902 64.0173 6.19426ZM63.3009 6.19426C63.3661 6.06378 63.4313 5.99833 63.5615 6.12901C63.4313 6.2597 63.3661 6.2597 63.3009 6.19426ZM59.6539 6.45562C59.7843 6.45562 59.8494 6.45562 59.9796 6.45562C60.11 6.45562 60.1751 6.45562 60.3053 6.39038C60.3703 6.39038 60.4357 6.39038 60.5006 6.39038C60.5658 6.39038 60.631 6.39038 60.5658 6.52086C60.3703 6.52086 60.2401 6.52086 60.0448 6.58631C59.9144 6.65154 59.7843 6.65155 59.6539 6.45562ZM61.3474 6.2597C61.5427 6.39038 61.8032 6.32494 61.9983 6.2597C62.1287 6.19426 62.3243 6.19426 62.4544 6.19426C62.5846 6.19426 62.6497 6.19425 62.7801 6.12901C62.8451 6.12901 62.9754 5.99833 63.1056 6.2597C62.9103 6.2597 62.7801 6.2597 62.6497 6.2597C62.4544 6.2597 62.3243 6.2597 62.1287 6.39038C61.9334 6.52086 61.8032 6.32494 61.6079 6.39038C61.5427 6.39038 61.4775 6.39038 61.4123 6.39038C61.152 6.39038 60.9565 6.45562 60.696 6.39038C60.9565 6.39038 61.1518 6.32494 61.3474 6.2597ZM59.3936 6.32494L59.3284 6.2597C59.3284 6.2597 59.3284 6.19426 59.3936 6.19426C59.5237 6.19426 59.5889 6.19426 59.7193 6.19426V6.2597C59.5889 6.2597 59.5237 6.32494 59.3936 6.32494ZM60.4357 4.75735C60.3703 4.75735 60.3703 4.75735 60.3053 4.75735C60.3053 4.75735 60.3053 4.69191 60.2401 4.69191L60.3053 4.62667C60.3703 4.62667 60.4357 4.62667 60.4357 4.75735ZM61.9334 4.62667C61.9334 4.62667 61.9334 4.56143 61.8682 4.56143C61.9334 4.56143 61.9983 4.56143 62.0637 4.56143C62.1287 4.56143 62.1939 4.56143 62.2591 4.56143V4.62667C62.1939 4.69191 62.0637 4.62667 61.9334 4.62667ZM62.6497 4.62667C62.5846 4.69191 62.5196 4.69191 62.4544 4.62667V4.56143V4.49598C62.5196 4.49598 62.5846 4.49598 62.6497 4.62667ZM63.0404 4.56143C63.1056 4.49598 63.1056 4.49598 63.1056 4.56143C63.1708 4.56143 63.1056 4.56143 63.0404 4.56143C63.1056 4.62667 63.1056 4.62667 63.0404 4.56143ZM64.0825 4.49598C64.0825 4.3653 64.1477 4.43074 64.2126 4.43074H64.2778C64.2778 4.43074 64.2778 4.43074 64.2778 4.49598C64.2126 4.56143 64.0825 4.56143 64.0825 4.49598ZM61.6729 5.01851C61.8032 4.88804 61.9983 5.01851 62.1287 4.95327C62.1287 4.95327 62.1939 5.01851 62.1939 5.08396C62.1939 5.1492 62.1287 5.21464 62.1287 5.21464C62.0637 5.21464 61.9983 5.21464 61.8682 5.21464C61.8682 5.27988 61.8682 5.34512 61.8682 5.34512L61.8032 5.41056C61.738 5.27988 61.6729 5.1492 61.6729 5.01851ZM61.5427 4.56143C61.6079 4.75735 61.6079 4.75735 61.3474 4.82259C61.3474 4.88804 61.4123 4.88804 61.4123 4.95327C61.4123 5.01851 61.3474 5.1492 61.3474 5.21464C61.4123 5.27988 61.4123 5.27988 61.4775 5.34512C61.3474 5.34512 61.2822 5.34512 61.217 5.27988C61.1518 5.21464 61.1518 5.08396 61.217 5.01851C61.2822 4.95327 61.2822 4.82259 61.217 4.75735C61.1518 4.69191 61.1518 4.62667 61.217 4.56143C61.3474 4.56143 61.4123 4.56143 61.5427 4.56143ZM61.4123 4.43074C61.4123 4.3653 61.4123 4.3653 61.4123 4.43074C61.4775 4.3653 61.4775 4.3653 61.4123 4.43074ZM64.6035 3.84277C64.6687 3.84277 64.6687 3.84277 64.6687 3.90822H64.6035C64.6687 3.90822 64.6035 3.90822 64.6035 3.84277ZM64.1477 3.97346C64.1477 3.90822 64.1477 3.90822 64.1477 3.90822H64.2126V3.97346H64.1477ZM63.9523 3.90822C63.9523 3.97346 63.9523 3.97346 63.9523 3.97346C63.8872 3.97346 63.8872 3.97346 63.9523 3.90822C63.8872 3.97346 63.8872 3.90822 63.9523 3.90822ZM62.7801 2.86316C62.7801 2.79771 62.7801 2.79771 62.7801 2.86316C62.7801 2.79771 62.8451 2.79771 62.8451 2.79771C62.8451 2.79771 62.8451 2.79771 62.7801 2.86316ZM78.3448 1.75265C78.2796 1.81789 78.2796 1.81789 78.2144 1.88334C78.1494 1.81789 78.1494 1.75265 78.0843 1.62197C78.2144 1.62197 78.2144 1.62197 78.2796 1.62197L78.3448 1.68721V1.75265ZM77.6284 1.68721C77.5634 1.68721 77.5634 1.75265 77.6284 1.68721C77.5634 1.75265 77.5634 1.75265 77.6284 1.68721ZM80.4939 1.81789C80.4287 1.81789 80.4287 1.81789 80.4287 1.81789H80.4939ZM80.6892 1.81789C80.7544 1.81789 80.7544 1.81789 80.6892 1.81789V1.81789ZM64.1477 3.77753C64.0825 3.71229 64.1477 3.71229 64.1477 3.77753V3.77753ZM62.9754 3.64685C63.1056 3.64685 63.236 3.71229 63.3661 3.71229C63.4313 3.71229 63.4313 3.77753 63.4965 3.77753C63.4313 3.77753 63.3009 3.77753 63.236 3.84277C63.1708 3.84277 63.1056 3.90822 63.0404 3.84277C63.0404 3.84277 62.9754 3.77753 62.9754 3.71229C62.9103 3.64685 62.9754 3.64685 62.9754 3.64685ZM64.343 3.38569L64.4082 3.45093C64.4082 3.51616 64.4082 3.58161 64.4082 3.64685H64.343C64.343 3.58161 64.2778 3.51616 64.2778 3.45093C64.2778 3.45093 64.2778 3.38569 64.343 3.38569ZM68.8366 2.79771C68.9018 2.73247 68.967 2.73247 68.967 2.79771C68.967 2.79771 68.9669 2.86316 68.9018 2.86316C68.9018 2.86316 68.9018 2.86316 68.8366 2.79771ZM63.1708 3.38569V3.45093C63.1056 3.45093 63.1056 3.38569 63.1708 3.38569C63.1056 3.38569 63.1056 3.32024 63.1708 3.38569C63.1708 3.32024 63.1056 3.32024 63.1708 3.38569ZM63.6918 3.12432C63.7568 3.18956 63.6918 3.18956 63.6918 3.255C63.6918 3.255 63.6266 3.18956 63.6918 3.12432ZM63.7568 2.79771C63.7568 2.86316 63.7568 2.86316 63.7568 2.79771C63.7568 2.86316 63.7568 2.86316 63.7568 2.86316C63.7568 2.86316 63.7568 2.86316 63.6918 2.79771C63.6918 2.86316 63.7568 2.86316 63.7568 2.79771ZM64.1477 3.255C64.0173 3.12432 63.9523 3.05908 63.9523 2.99363V2.86316L64.0173 2.79771C64.0173 2.86316 64.0825 2.86316 64.1477 2.9284C64.1477 2.99363 64.1477 3.05908 64.1477 3.255ZM77.0422 1.62197C77.0422 1.55673 77.1074 1.55673 77.0422 1.62197C77.1074 1.55673 77.1074 1.55673 77.0422 1.62197C77.1074 1.62197 77.1074 1.62197 77.0422 1.62197ZM77.8237 1.55673C77.8237 1.62197 77.8237 1.62197 77.8237 1.55673V1.55673ZM66.7526 2.53655C66.8176 2.53655 66.8176 2.60179 66.8176 2.60179L66.7526 2.66703C66.6875 2.66703 66.6875 2.60179 66.6223 2.60179C66.7526 2.60179 66.7526 2.53655 66.7526 2.53655ZM69.553 2.07926C69.6179 2.07926 69.6179 2.07926 69.553 2.07926V2.07926ZM65.1895 2.20994C65.1895 2.1445 65.2547 2.1445 65.1895 2.20994C65.2547 2.1445 65.2547 2.20994 65.1895 2.20994ZM67.1433 2.01382C67.2085 1.94858 67.2085 1.88334 67.2735 1.88334C67.2735 1.88334 67.2735 1.88334 67.3389 1.88334C67.2735 2.01382 67.2085 2.01382 67.1433 2.01382ZM72.9395 1.49129C72.9395 1.49129 72.8743 1.49129 72.8743 1.42605C72.8743 1.42605 72.8743 1.36081 72.9395 1.36081C72.9395 1.36081 73.0047 1.36081 73.0696 1.36081C72.9395 1.42605 72.9395 1.49129 72.9395 1.49129ZM73.5907 1.42605C73.5255 1.42605 73.5255 1.42605 73.5907 1.42605C73.5255 1.36081 73.5907 1.36081 73.5907 1.29536C73.5907 1.29536 73.5907 1.29536 73.6559 1.36081C73.5907 1.36081 73.5907 1.42605 73.5907 1.42605ZM74.6327 1.36081C74.5676 1.36081 74.5676 1.36081 74.6327 1.36081C74.5676 1.29536 74.6327 1.29536 74.6327 1.29536C74.6327 1.29536 74.6327 1.29536 74.6327 1.36081ZM69.9438 1.88334C69.9438 1.81789 69.9438 1.81789 70.0088 1.75265C70.0088 1.75265 70.074 1.75265 70.074 1.81789C70.0088 1.88334 70.0088 1.88334 70.0088 1.94858L69.9438 1.88334ZM67.7945 2.07926C67.8597 2.07926 67.8597 2.1445 67.7945 2.07926V2.07926ZM67.0132 1.88334C67.0132 1.94858 67.0132 2.01382 67.0781 2.01382C67.0781 2.07926 67.0781 2.07926 67.0781 2.07926C67.0132 2.1445 66.948 2.07926 66.948 2.07926C66.883 2.01382 66.883 1.88334 66.883 1.75265C67.0132 1.75265 67.0132 1.81789 67.0132 1.88334Z" fill="black"/>
<path d="M60.9565 3.3857C60.9565 3.51638 61.0217 3.64707 61.0217 3.77775C61.1518 3.77775 61.217 3.84299 61.282 3.64707C61.282 3.51638 61.4123 3.51638 61.4775 3.51638C61.5425 3.58162 61.4775 3.64707 61.5425 3.71231C61.6077 3.71231 61.6077 3.77775 61.738 3.77775C61.738 3.71231 61.8032 3.64707 61.8682 3.51638C61.5425 3.25501 61.282 3.3857 60.9565 3.3857ZM61.6077 3.51638C61.6729 3.51638 61.6729 3.51638 61.6077 3.51638C61.6729 3.58162 61.6729 3.58162 61.6729 3.58162C61.6729 3.58162 61.6077 3.58162 61.6077 3.51638Z" fill="black"/>
<path d="M57.3748 4.95361C57.505 5.0843 57.6353 5.01885 57.7005 5.01885C57.7005 5.01885 57.7005 5.0843 57.7655 5.14954C57.6353 5.14954 57.5702 5.0843 57.505 5.0843C57.3748 5.0843 57.3096 5.14954 57.1795 5.14954C57.0491 5.14954 56.8538 5.21477 56.7236 5.14954C56.6584 5.14954 56.6584 5.0843 56.6584 5.01885C56.7888 5.01885 56.8538 5.01885 56.9841 5.01885C57.1143 5.01885 57.2447 4.95361 57.3096 4.95361H57.3748Z" fill="black"/>
<path d="M60.631 3.51559C60.3705 3.58044 60.175 3.58044 59.9796 3.58044C60.2401 3.45095 60.4355 3.45095 60.631 3.51559Z" fill="black"/>
<path d="M57.7657 6.97815C57.5704 6.97815 57.3748 7.0436 57.1795 6.91291C57.2445 6.91291 57.2445 6.84767 57.3099 6.84767C57.44 6.97815 57.505 6.84767 57.6354 6.78223C57.7005 6.84767 57.8307 6.91291 57.8959 6.91291C57.8959 6.97815 57.8307 6.97815 57.7657 6.97815Z" fill="black"/>
<path d="M57.1791 6.97817C57.0489 6.91272 56.8536 6.97817 56.7232 7.04341C56.6583 7.04341 56.6583 7.04341 56.5279 6.97817C56.7884 6.84748 56.9837 6.78225 57.1791 6.97817Z" fill="black"/>
<path d="M62.9758 2.14436C62.9105 2.2098 62.7803 2.2098 62.7153 2.27504C62.6501 2.27504 62.585 2.27504 62.585 2.2098C62.585 2.14436 62.585 2.07912 62.585 2.01367C62.7153 2.07912 62.8455 2.07912 62.9105 2.07912C62.9105 2.07912 62.9758 2.07912 62.9758 2.14436Z" fill="black"/>
<path d="M62.9103 2.40547C63.0406 2.34024 63.171 2.47071 63.236 2.47071C63.1056 2.47071 63.0406 2.66684 62.9103 2.40547Z" fill="black"/>
<path d="M57.8311 10.8319C58.0264 10.7666 58.2217 10.7666 58.4171 10.7012C58.4822 10.7012 58.5474 10.7012 58.6124 10.7666C58.2869 10.8319 58.0264 10.8319 57.8311 10.8319Z" fill="black"/>
<path d="M62.064 3.4509C62.1289 3.18953 62.1943 3.18953 62.3895 3.32022C62.1943 3.4509 62.1943 3.4509 62.064 3.4509Z" fill="black"/>
<path d="M57.6351 8.02309C57.6351 8.02309 57.5699 7.95764 57.5048 7.95764C57.5699 7.8924 57.6351 7.82716 57.7001 7.76172C57.7001 7.82716 57.7655 7.8924 57.7655 7.95764C57.7001 7.95764 57.6351 8.02309 57.6351 8.02309Z" fill="black"/>
<path d="M58.809 10.1789C58.809 10.2443 58.809 10.3096 58.7434 10.3748C58.7434 10.3096 58.6774 10.1789 58.6774 10.1137C58.7434 10.0484 58.7434 10.0484 58.809 10.1789Z" fill="black"/>
<path d="M56.7882 7.82733C56.723 7.82733 56.5929 7.82733 56.4627 7.76209C56.6578 7.63141 56.6578 7.63141 56.723 7.69665C56.723 7.76209 56.7882 7.76209 56.7882 7.82733Z" fill="black"/>
<path d="M56.854 8.28467C56.9192 8.34991 56.9192 8.41535 56.9843 8.54583C56.854 8.54583 56.789 8.48059 56.789 8.41535C56.789 8.34991 56.789 8.34991 56.854 8.28467Z" fill="black"/>
<path d="M54.5747 9.06836C54.6399 9.06836 54.6399 9.06836 54.6399 9.19905C54.5747 9.19905 54.4444 9.19905 54.3794 9.19905C54.3794 9.13381 54.3794 9.1338 54.3794 9.06836C54.4444 9.19904 54.5095 9.06836 54.5747 9.06836Z" fill="black"/>
<path d="M58.8721 4.03889C58.8721 4.03889 58.8721 3.97365 58.8721 3.9082C58.9373 3.97365 59.0025 4.03889 59.0677 4.16957C58.9373 4.23481 58.8721 4.16957 58.8721 4.03889Z" fill="black"/>
<path d="M66.3615 1.68753C66.3615 1.68753 66.3615 1.75277 66.3615 1.81801H66.2964C66.2964 1.81801 66.2314 1.81801 66.1662 1.81801C66.2314 1.75277 66.2314 1.75277 66.2314 1.75277C66.2964 1.62209 66.2964 1.62209 66.3615 1.68753Z" fill="black"/>
<path d="M55.8773 5.21437C55.9425 5.14952 56.0077 5.21437 56.1378 5.27901C56.0727 5.27901 55.9425 5.27901 55.8773 5.21437Z" fill="black"/>
<path d="M57.1791 7.36995C57.1141 7.30451 57.0487 7.30451 56.9838 7.30451C57.0487 7.17403 57.1141 7.23927 57.1791 7.36995Z" fill="black"/>
<path d="M56.3331 7.36934C56.3981 7.30469 56.4633 7.30469 56.5285 7.30469C56.4633 7.36933 56.3981 7.36934 56.3331 7.36934Z" fill="black"/>
<path d="M53.9231 9.26438C53.8581 9.26438 53.7928 9.32983 53.7928 9.32983H53.7278V9.26438C53.7928 9.19914 53.8581 9.1337 53.9231 9.26438Z" fill="black"/>
<path d="M71.8324 1.16421C71.7673 1.22906 71.7023 1.16421 71.6369 1.16421C71.7023 1.09956 71.7023 1.09956 71.8324 1.16421C71.8324 1.09956 71.7673 1.09956 71.8324 1.16421Z" fill="black"/>
<path d="M59.1332 5.67188C59.1984 5.67188 59.2636 5.67188 59.3286 5.67188C59.2636 5.80137 59.2636 5.80137 59.1332 5.67188Z" fill="black"/>
<path d="M57.5068 7.17411C57.5068 7.23934 57.5068 7.30479 57.5068 7.37003C57.441 7.30479 57.3752 7.23934 57.3752 7.17411C57.3752 7.17411 57.441 7.10866 57.5068 7.17411Z" fill="black"/>
<path d="M62.4544 2.60188C62.5196 2.60188 62.5846 2.53643 62.65 2.47119C62.65 2.47119 62.7149 2.47119 62.7801 2.53643C62.6499 2.60188 62.5196 2.60188 62.4544 2.60188Z" fill="black"/>
<path d="M60.5012 4.104L60.567 4.16924L60.5012 4.23469C60.4354 4.23469 60.4354 4.23469 60.4354 4.16924L60.5012 4.104Z" fill="black"/>
<path d="M57.8307 7.23932C57.7003 7.23932 57.7003 7.23933 57.5699 7.30456C57.6353 7.23933 57.6353 7.17409 57.7003 7.17409C57.7655 7.10864 57.7655 7.17408 57.8307 7.23932Z" fill="black"/>
<path d="M62.3888 2.0791C62.454 2.0791 62.5192 2.0791 62.5841 2.0791C62.5192 2.14434 62.454 2.20958 62.3888 2.27502C62.3236 2.14434 62.3236 2.0791 62.3888 2.0791Z" fill="black"/>
<path d="M62.3886 3.71235C62.3245 3.58167 62.3886 3.45098 62.3886 3.38574C62.3886 3.45098 62.4532 3.58167 62.3886 3.71235Z" fill="black"/>
<path d="M58.8742 5.4754L58.8084 5.54004C58.8084 5.54004 58.8084 5.4754 58.7426 5.4754C58.7426 5.41055 58.8084 5.41055 58.8742 5.4754Z" fill="black"/>
<path d="M60.2405 6.06261L60.1754 5.99797C60.1754 5.99797 60.2405 5.93332 60.2405 5.99797C60.2405 5.99797 60.3055 5.99797 60.3709 6.06261C60.3055 6.06261 60.2405 6.06261 60.2405 6.06261Z" fill="black"/>
<path d="M54.1837 9.19844C54.2486 9.19844 54.3138 9.13379 54.379 9.13379C54.3138 9.13379 54.2486 9.26308 54.1837 9.19844Z" fill="black"/>
<path d="M60.7607 3.77734C60.8259 3.77734 60.8257 3.77734 60.8257 3.77734V3.84056L60.7607 3.77734Z" fill="black"/>
<path d="M58.0922 6.45557C58.0922 6.52101 58.0264 6.52101 58.0264 6.58625C57.9606 6.58625 57.9606 6.52101 57.9606 6.52101C57.9606 6.52101 58.0264 6.45557 58.0922 6.45557Z" fill="black"/>
<path d="M54.9004 9.06836H54.9648C54.9648 9.06836 54.9647 9.13321 54.9004 9.13321C54.9004 9.19786 54.9004 9.13321 54.9004 9.06836Z" fill="black"/>
<path d="M55.1595 5.34502V5.41026L55.0952 5.34502V5.27979C55.0952 5.27979 55.0952 5.27978 55.1595 5.34502Z" fill="black"/>
<path d="M60.6314 5.08368L60.6972 5.14892V5.21437C60.6314 5.14892 60.5654 5.14892 60.6314 5.08368C60.6314 5.01844 60.5654 5.08368 60.6314 5.08368Z" fill="black"/>
<path d="M58.2869 6.51878C58.2869 6.45556 58.3511 6.45557 58.4152 6.45557C58.3511 6.51878 58.2869 6.51878 58.2869 6.51878Z" fill="black"/>
<path d="M61.9329 10.7664C61.868 10.7012 61.868 10.7012 61.9329 10.7012C61.9329 10.7664 61.9329 10.7664 61.9329 10.7664Z" fill="black"/>
<path d="M55.4854 5.40923C55.4204 5.47244 55.4204 5.40923 55.4204 5.40923C55.4204 5.34601 55.4204 5.34601 55.4854 5.40923Z" fill="black"/>
<path d="M56.4627 5.08398C56.4627 5.14863 56.4627 5.14863 56.4627 5.08398C56.5269 5.14863 56.4627 5.14863 56.4627 5.14863C56.4627 5.21348 56.4627 5.14863 56.4627 5.08398Z" fill="black"/>
<path d="M59.7201 5.34534C59.7201 5.2801 59.7201 5.21486 59.6543 5.14941C59.7201 5.21486 59.7859 5.2801 59.7201 5.34534Z" fill="black"/>
<path d="M60.4988 3.7124C60.4988 3.77562 60.4346 3.77562 60.3702 3.77562C60.4346 3.7124 60.4346 3.7124 60.4988 3.7124Z" fill="black"/>
<path d="M59.3938 3.58237C59.328 3.58237 59.328 3.58237 59.3938 3.58237C59.328 3.58237 59.328 3.58237 59.328 3.58237C59.328 3.58237 59.328 3.51568 59.3938 3.58237C59.328 3.58237 59.328 3.51568 59.3938 3.58237Z" fill="black"/>
<path d="M63.3655 2.14436C63.3012 2.07912 63.3655 2.07912 63.3655 2.01367C63.3655 2.01367 63.3655 2.07912 63.3655 2.14436Z" fill="black"/>
<path d="M75.4141 0.96875C75.4799 0.96875 75.4799 0.96875 75.4141 0.96875C75.4799 0.96875 75.4799 1.03585 75.4141 0.96875Z" fill="black"/>
<path d="M56.3972 9.65625C56.3345 9.65625 56.3972 9.7181 56.3972 9.65625V9.65625Z" fill="black"/>
<path d="M59.198 10.2441C59.133 10.3092 59.198 10.3092 59.198 10.2441C59.133 10.2441 59.133 10.3092 59.198 10.2441Z" fill="black"/>
<path d="M58.6116 4.30022C58.5467 4.23456 58.6116 4.23456 58.6116 4.30022C58.6116 4.23456 58.6116 4.23456 58.6116 4.30022Z" fill="black"/>
<path d="M59.3934 5.34521C59.3934 5.40901 59.3934 5.40901 59.3934 5.40901C59.4581 5.40901 59.3934 5.40901 59.3934 5.34521Z" fill="black"/>
<path d="M60.1754 10.7667C60.1754 10.7015 60.2403 10.7015 60.1754 10.7667C60.2403 10.7667 60.2403 10.7667 60.1754 10.7667Z" fill="black"/>
<path d="M61.9983 2.66478L61.9333 2.60156H61.9983V2.66478Z" fill="black"/>
<path d="M58.4161 6.19286C58.3511 6.12907 58.4161 6.12907 58.4161 6.19286C58.4161 6.12907 58.4161 6.12907 58.4161 6.19286Z" fill="black"/>
<path d="M59.6539 4.16943C59.6539 4.23469 59.6539 4.23469 59.6539 4.16943C59.5889 4.23469 59.5889 4.23469 59.6539 4.16943Z" fill="black"/>
<path d="M59.3934 4.62748C59.3934 4.56038 59.4594 4.62748 59.3934 4.62748C59.4594 4.62748 59.4594 4.62748 59.3934 4.62748Z" fill="black"/>
<path d="M66.4267 10.8322C66.3615 10.8322 66.2964 10.8977 66.1662 10.8322C66.3615 10.7017 66.5569 10.7017 66.6872 10.767C66.5569 10.8322 66.4917 10.8322 66.4267 10.8322Z" fill="black"/>
<path d="M68.1858 11.0283L68.1206 11.0936C68.1206 11.0936 68.0557 11.0936 67.9905 11.0283C68.0557 10.9629 68.0557 10.9629 68.1206 10.9629C68.1206 10.9629 68.1858 10.9629 68.1858 11.0283Z" fill="black"/>
<path d="M68.9673 11.0281C69.0975 10.9627 69.0975 10.9627 69.1627 10.8975C69.1627 11.0281 69.1627 11.0281 68.9673 11.0281Z" fill="black"/>
<path d="M67.5342 10.7658C67.469 10.7658 67.469 10.7658 67.3389 10.7012C67.469 10.7012 67.469 10.6363 67.5342 10.7012C67.5342 10.7012 67.5994 10.7012 67.5342 10.7658Z" fill="black"/>
<path d="M70.2023 10.7666C70.2023 10.8298 70.2023 10.8298 70.2023 10.7666C70.1381 10.8298 70.1381 10.8298 70.0738 10.8298V10.7666C70.1381 10.7666 70.2023 10.7666 70.2023 10.7666Z" fill="black"/>
<path d="M76.0651 11.1583C76.0001 11.1583 76.0001 11.1583 76.0651 11.1583C76.0001 11.0931 76.0001 11.1583 76.0651 11.1583C76.0651 11.0931 76.0001 11.0931 76.0651 11.1583Z" fill="black"/>
<path d="M74.2423 11.2219V11.1587L74.3073 11.2219H74.2423Z" fill="black"/>
</g>
</svg>
