<svg width="24" height="24" viewBox="0 0 24 24" fill="none" xmlns="http://www.w3.org/2000/svg">
<path d="M21 10.713V18.989C21 20.1 20.129 21 19.054 21H4.946C3.871 21 3 20.1 3 18.99V7.01C3 5.9 3.871 5 4.946 5H10.297" stroke="#A3A3A3" stroke-width="1.4835" stroke-linecap="round" stroke-linejoin="round"/>
<path fill-rule="evenodd" clip-rule="evenodd" d="M18.062 3.50499C18.734 2.83299 19.824 2.83199 20.496 3.50499V3.50499C21.168 4.17699 21.168 5.26699 20.495 5.93899L14.721 11.708C14.534 11.895 14.28 12 14.015 12H12V9.98499C12 9.71999 12.105 9.46599 12.293 9.27799L18.062 3.50499V3.50499Z" stroke="#A3A3A3" stroke-width="1.5" stroke-linecap="round" stroke-linejoin="round"/>
<path d="M8 12H6" stroke="#A3A3A3" stroke-width="1.5" stroke-linecap="round" stroke-linejoin="round"/>
<path d="M6 16H18" stroke="#A3A3A3" stroke-width="1.5" stroke-linecap="round" stroke-linejoin="round"/>
<path d="M19.43 7.00001L17 4.57001" stroke="#A3A3A3" stroke-width="1.5" stroke-linecap="round" stroke-linejoin="round"/>
</svg>
