<svg width="50" height="50" viewBox="0 0 50 50" fill="none" xmlns="http://www.w3.org/2000/svg">
<path d="M30.9983 21.1829C34.2421 24.4267 34.2421 29.6859 30.9983 32.9297C27.7545 36.1735 22.4953 36.1735 19.2515 32.9297C16.0077 29.6859 16.0077 24.4267 19.2515 21.1829C22.4953 17.9391 27.7545 17.9391 30.9983 21.1829" stroke="white" stroke-width="2" stroke-linecap="round" stroke-linejoin="round"/>
<path fill-rule="evenodd" clip-rule="evenodd" d="M43.75 18.75V37.5C43.75 39.8021 41.8854 41.6667 39.5833 41.6667H10.4167C8.11458 41.6667 6.25 39.8021 6.25 37.5V18.75C6.25 16.4479 8.11458 14.5833 10.4167 14.5833H14.5833L17.6292 9.36667C18.0021 8.72709 18.6875 8.33334 19.4292 8.33334H30.4792C31.2104 8.33334 31.8875 8.71667 32.2646 9.34167L35.4167 14.5833H39.5833C41.8854 14.5833 43.75 16.4479 43.75 18.75Z" stroke="white" stroke-width="2" stroke-linecap="round" stroke-linejoin="round"/>
</svg>
